<svg
  width="25"
  height="25"
  viewBox="0 0 25 25"
  fill="none"
  xmlns="http://www.w3.org/2000/svg"
>
  <path d="M7.77953 19.6065H9.80893V17.5761H7.77953C6.10122 17.5761 4.73544 16.2096 4.73544 14.5304C4.73544 13.105 5.95206 11.7324 7.44772 11.4695L8.03726 11.3659L8.23209 10.7994C8.94542 8.71717 10.7171 7.42377 12.853 7.42377C15.6505 7.42377 17.9265 9.70093 17.9265 12.4999V13.5151H18.9412C20.0604 13.5151 20.9706 14.4258 20.9706 15.5456C20.9706 16.6654 20.0604 17.5761 18.9412 17.5761H15.8971V19.6065H18.9412C21.1796 19.6065 23 17.7852 23 15.5456C22.9984 14.6356 22.6922 13.7523 22.1301 13.0368C21.568 12.3213 20.7825 11.8149 19.8991 11.5984C19.4557 8.10397 16.4653 5.39331 12.853 5.39331C10.0565 5.39331 7.62733 7.02884 6.51826 9.60651C4.33869 10.2583 2.70604 12.3172 2.70604 14.5304C2.70604 17.3294 4.98201 19.6065 7.77953 19.6065Z" />
  <path
    fillRule="evenodd"
    clipRule="evenodd"
    d="M16.1836 11.8558L11.6817 16.7791L9.17648 14.4342L10.3575 13.1724L11.5862 14.3224L14.9081 10.6895L16.1836 11.8558Z"
  />
</svg>
