<svg
  width="25"
  height="25"
  viewBox="0 0 25 25"
  fill="none"
  xmlns="http://www.w3.org/2000/svg"
>
  <path d="M14.0139 19.6065V15.5456H17.058L12.9992 10.4695L8.94049 15.5456H11.9846V19.6065H14.0139Z" />
  <path d="M7.77966 19.6064H9.80904V17.5759H7.77966C6.10136 17.5759 4.73559 16.2095 4.73559 14.5303C4.73559 13.1049 5.95221 11.7323 7.44786 11.4694L8.03739 11.3658L8.23221 10.7994C8.94554 8.71714 10.7172 7.42375 12.8531 7.42375C15.6506 7.42375 17.9266 9.70089 17.9266 12.4998V13.5151H18.9412C20.0604 13.5151 20.9706 14.4257 20.9706 15.5455C20.9706 16.6653 20.0604 17.5759 18.9412 17.5759H15.8972V19.6064H18.9412C21.1796 19.6064 23 17.7851 23 15.5455C22.9984 14.6355 22.6922 13.7522 22.1301 13.0367C21.568 12.3213 20.7826 11.8148 19.8991 11.5983C19.4557 8.10395 16.4654 5.39331 12.8531 5.39331C10.0566 5.39331 7.62746 7.02883 6.5184 9.60647C4.33885 10.2582 2.70621 12.3171 2.70621 14.5303C2.70621 17.3292 4.98216 19.6064 7.77966 19.6064Z" />
</svg>
