<svg
  width="24"
  height="24"
  viewBox="0 0 24 24"
  fill="none"
  xmlns="http://www.w3.org/2000/svg"
>
  <path d="M7.30722 3C7.77209 3 8.18897 3.28529 8.35693 3.72072L10.6978 9.7988L9.49212 12.9069C9.47248 12.8694 9.45496 12.8308 9.43963 12.7913L8.98375 11.6081H5.63068L5.1748 12.7913C5.06742 13.07 4.85384 13.2947 4.58105 13.4158C4.30826 13.5368 3.9986 13.5445 3.7202 13.4369C3.4418 13.3294 3.21746 13.1156 3.09653 12.8424C2.97561 12.5693 2.968 12.2592 3.07538 11.9805L6.259 3.72072C6.3408 3.50848 6.48487 3.32603 6.67224 3.19738C6.85962 3.06873 7.08152 2.99991 7.30872 3H7.30722ZM6.49744 9.35586H8.11699L7.30722 7.25375L6.49744 9.35586ZM15.288 6.70721C15.2067 6.49428 15.0627 6.31108 14.8751 6.18185C14.6876 6.05261 14.4652 5.98342 14.2376 5.98342C14.0099 5.98342 13.7876 6.05261 13.6 6.18185C13.4124 6.31108 13.2684 6.49428 13.1871 6.70721L8.59086 18.7402C8.29258 18.7438 8.00793 18.8659 7.79954 19.0796C7.59115 19.2934 7.47609 19.5812 7.47967 19.8799C7.48325 20.1785 7.60517 20.4636 7.81863 20.6722C8.03208 20.8809 8.31957 20.9961 8.61786 20.9925H9.29867C9.34461 20.9954 9.39069 20.9954 9.43663 20.9925L10.8687 20.988C11.1559 20.9882 11.4322 20.8784 11.6411 20.6812C11.85 20.484 11.9757 20.2143 11.9923 19.9273C12.009 19.6403 11.9155 19.3578 11.7308 19.1376C11.5461 18.9175 11.2844 18.7764 10.9992 18.7432L11.5735 17.2417H16.9046L17.4834 18.7553C17.1981 18.7884 16.9362 18.9296 16.7516 19.1499C16.5669 19.3702 16.4734 19.6529 16.4903 19.94C16.5072 20.2272 16.6331 20.4969 16.8423 20.694C17.0515 20.8911 17.3281 21.0006 17.6154 21L19.8648 20.994C20.1631 20.9968 20.4502 20.8808 20.6631 20.6716C20.876 20.4624 20.9972 20.177 21 19.8784C21.0027 19.5797 20.8869 19.2922 20.678 19.079C20.469 18.8658 20.184 18.7445 19.8858 18.7417L18.7641 15.8063C18.746 15.7428 18.7224 15.681 18.6936 15.6216L15.2895 6.70871L15.288 6.70721ZM16.0438 14.9865H12.4328L14.2383 10.2613L16.0438 14.9865Z" />
</svg>
