<svg
  width="24"
  height="24"
  viewBox="0 0 24 24"
  fill="none"
  xmlns="http://www.w3.org/2000/svg"
>
  <path d="M9.3929 7C9.65116 7 9.88276 7.15849 9.97607 7.4004L11.2765 10.7771L10.6067 12.5038C10.5958 12.483 10.5861 12.4615 10.5776 12.4396L10.3243 11.7823H8.46149L8.20822 12.4396C8.14857 12.5945 8.02991 12.7193 7.87836 12.7865C7.72681 12.8538 7.55478 12.858 7.40011 12.7983C7.24545 12.7386 7.12081 12.6198 7.05363 12.468C6.98645 12.3163 6.98222 12.144 7.04188 11.9892L8.81056 7.4004C8.856 7.28249 8.93604 7.18113 9.04013 7.10965C9.14423 7.03818 9.26751 6.99995 9.39373 7H9.3929ZM8.94302 10.531H9.84277L9.3929 9.3632L8.94302 10.531ZM13.8267 9.05956C13.7815 8.94127 13.7015 8.83949 13.5973 8.76769C13.4931 8.69589 13.3696 8.65745 13.2431 8.65745C13.1166 8.65745 12.9931 8.69589 12.8889 8.76769C12.7847 8.83949 12.7047 8.94127 12.6595 9.05956L10.106 15.7446C9.94032 15.7466 9.78218 15.8144 9.66641 15.9331C9.55064 16.0519 9.48672 16.2118 9.4887 16.3777C9.49069 16.5436 9.55843 16.702 9.67701 16.8179C9.7956 16.9338 9.95532 16.9978 10.121 16.9958H10.4993C10.5248 16.9974 10.5504 16.9974 10.5759 16.9958L11.3715 16.9933C11.531 16.9934 11.6845 16.9325 11.8006 16.8229C11.9167 16.7133 11.9865 16.5635 11.9957 16.404C12.005 16.2446 11.953 16.0876 11.8504 15.9653C11.7479 15.843 11.6024 15.7647 11.444 15.7462L11.7631 14.9121H14.7248L15.0463 15.7529C14.8878 15.7713 14.7424 15.8498 14.6398 15.9722C14.5372 16.0946 14.4852 16.2516 14.4946 16.4111C14.504 16.5706 14.574 16.7205 14.6902 16.83C14.8064 16.9395 14.9601 17.0003 15.1197 17L16.3693 16.9967C16.535 16.9982 16.6946 16.9338 16.8128 16.8175C16.9311 16.7013 16.9984 16.5428 17 16.3769C17.0015 16.2109 16.9372 16.0512 16.8211 15.9328C16.705 15.8144 16.5467 15.747 16.381 15.7454L15.7578 14.1146C15.7478 14.0793 15.7347 14.045 15.7187 14.012L13.8275 9.06039L13.8267 9.05956ZM14.2466 13.6592H12.2404L13.2435 11.034L14.2466 13.6592Z" />
</svg>
