<svg
  width="24"
  height="24"
  viewBox="0 0 24 24"
  fill="none"
  xmlns="http://www.w3.org/2000/svg"
>
  <path d="M8.35006 5C8.71162 5 9.03587 5.22189 9.1665 5.56056L10.9872 10.288L10.0494 12.7054C10.0342 12.6762 10.0205 12.6462 10.0086 12.6154L9.65403 11.6952H7.04608L6.69151 12.6154C6.60799 12.8323 6.44188 13.007 6.22971 13.1011C6.01753 13.1953 5.77669 13.2012 5.56016 13.1176C5.34362 13.034 5.16914 12.8677 5.07508 12.6552C4.98103 12.4428 4.97511 12.2016 5.05863 11.9848L7.53478 5.56056C7.5984 5.39549 7.71045 5.25358 7.85619 5.15352C8.00193 5.05345 8.17451 4.99993 8.35122 5H8.35006ZM7.72023 9.94344H8.97988L8.35006 8.30847L7.72023 9.94344ZM14.5574 7.88338C14.4941 7.71777 14.3821 7.57529 14.2362 7.47477C14.0903 7.37425 13.9174 7.32043 13.7403 7.32043C13.5632 7.32043 13.3903 7.37425 13.2444 7.47477C13.0985 7.57529 12.9866 7.71777 12.9233 7.88338L9.34845 17.2424C9.11645 17.2452 8.89506 17.3401 8.73298 17.5064C8.57089 17.6726 8.4814 17.8965 8.48419 18.1288C8.48697 18.3611 8.5818 18.5828 8.74782 18.7451C8.91384 18.9073 9.13744 18.9969 9.36944 18.9942H9.89896C9.9347 18.9964 9.97054 18.9964 10.0063 18.9942L11.1201 18.9907C11.3434 18.9908 11.5584 18.9055 11.7208 18.7521C11.8833 18.5987 11.9811 18.3889 11.994 18.1657C12.007 17.9424 11.9342 17.7227 11.7906 17.5515C11.647 17.3803 11.4434 17.2705 11.2216 17.2447L11.6683 16.0769H15.8147L16.2649 17.2541C16.043 17.2799 15.8393 17.3897 15.6957 17.561C15.552 17.7324 15.4793 17.9523 15.4925 18.1756C15.5056 18.3989 15.6036 18.6087 15.7663 18.762C15.929 18.9153 16.1441 19.0005 16.3675 19L18.117 18.9953C18.349 18.9975 18.5724 18.9073 18.738 18.7446C18.9036 18.5818 18.9978 18.3599 19 18.1276C19.0021 17.8953 18.912 17.6717 18.7495 17.5059C18.587 17.3401 18.3654 17.2457 18.1334 17.2436L17.2609 14.9605C17.2469 14.9111 17.2286 14.863 17.2061 14.8168L14.5585 7.88455L14.5574 7.88338ZM15.1452 14.3228H12.3366L13.7409 10.6476L15.1452 14.3228Z" />
</svg>
