<svg width="24" height="24" viewBox="0 0 24 24" fill="none" xmlns="http://www.w3.org/2000/svg">
<path d="M1 20V17.2C1 16.6333 1.146 16.1123 1.438 15.637C1.72933 15.1623 2.11667 14.8 2.6 14.55C3.63333 14.0333 4.68333 13.6457 5.75 13.387C6.81667 13.129 7.9 13 9 13C10.1 13 11.1833 13.129 12.25 13.387C13.3167 13.6457 14.3667 14.0333 15.4 14.55C15.8833 14.8 16.2707 15.1623 16.562 15.637C16.854 16.1123 17 16.6333 17 17.2V20H1ZM19 20V17C19 16.2667 18.796 15.5623 18.388 14.887C17.9793 14.2123 17.4 13.6333 16.65 13.15C17.5 13.25 18.3 13.4207 19.05 13.662C19.8 13.904 20.5 14.2 21.15 14.55C21.75 14.8833 22.2083 15.254 22.525 15.662C22.8417 16.0707 23 16.5167 23 17V20H19ZM9 12C7.9 12 6.95833 11.6083 6.175 10.825C5.39167 10.0417 5 9.1 5 8C5 6.9 5.39167 5.95833 6.175 5.175C6.95833 4.39167 7.9 4 9 4C10.1 4 11.0417 4.39167 11.825 5.175C12.6083 5.95833 13 6.9 13 8C13 9.1 12.6083 10.0417 11.825 10.825C11.0417 11.6083 10.1 12 9 12ZM19 8C19 9.1 18.6083 10.0417 17.825 10.825C17.0417 11.6083 16.1 12 15 12C14.8167 12 14.5833 11.9793 14.3 11.938C14.0167 11.896 13.7833 11.85 13.6 11.8C14.05 11.2667 14.3957 10.675 14.637 10.025C14.879 9.375 15 8.7 15 8C15 7.3 14.879 6.625 14.637 5.975C14.3957 5.325 14.05 4.73333 13.6 4.2C13.8333 4.11667 14.0667 4.06233 14.3 4.037C14.5333 4.01233 14.7667 4 15 4C16.1 4 17.0417 4.39167 17.825 5.175C18.6083 5.95833 19 6.9 19 8ZM3 18H15V17.2C15 17.0167 14.9543 16.85 14.863 16.7C14.771 16.55 14.65 16.4333 14.5 16.35C13.6 15.9 12.6917 15.5623 11.775 15.337C10.8583 15.1123 9.93333 15 9 15C8.06667 15 7.14167 15.1123 6.225 15.337C5.30833 15.5623 4.4 15.9 3.5 16.35C3.35 16.4333 3.22933 16.55 3.138 16.7C3.046 16.85 3 17.0167 3 17.2V18ZM9 10C9.55 10 10.021 9.804 10.413 9.412C10.8043 9.02067 11 8.55 11 8C11 7.45 10.8043 6.97933 10.413 6.588C10.021 6.196 9.55 6 9 6C8.45 6 7.97933 6.196 7.588 6.588C7.196 6.97933 7 7.45 7 8C7 8.55 7.196 9.02067 7.588 9.412C7.97933 9.804 8.45 10 9 10Z" fill="black"/>
</svg>
