<svg
  width="16"
  height="20"
  viewBox="0 0 16 20"
  fill="none"
  xmlns="http://www.w3.org/2000/svg"
>
  <path d="M10.5 16C10.9167 16 11.2707 15.854 11.562 15.562C11.854 15.2707 12 14.9167 12 14.5C12 14.0833 11.854 13.7293 11.562 13.438C11.2707 13.146 10.9167 13 10.5 13C10.0833 13 9.72933 13.146 9.438 13.438C9.146 13.7293 9 14.0833 9 14.5C9 14.9167 9.146 15.2707 9.438 15.562C9.72933 15.854 10.0833 16 10.5 16ZM5.45 15.95L11.95 9.45L10.55 8.05L4.05 14.55L5.45 15.95ZM5.5 11C5.91667 11 6.27067 10.854 6.562 10.562C6.854 10.2707 7 9.91667 7 9.5C7 9.08333 6.854 8.72933 6.562 8.438C6.27067 8.146 5.91667 8 5.5 8C5.08333 8 4.72933 8.146 4.438 8.438C4.146 8.72933 4 9.08333 4 9.5C4 9.91667 4.146 10.2707 4.438 10.562C4.72933 10.854 5.08333 11 5.5 11ZM8 20C5.71667 20 3.81267 19.2167 2.288 17.65C0.762667 16.0833 0 14.1333 0 11.8C0 10.1333 0.662667 8.321 1.988 6.363C3.31267 4.40433 5.31667 2.28333 8 0C10.6833 2.28333 12.6877 4.40433 14.013 6.363C15.3377 8.321 16 10.1333 16 11.8C16 14.1333 15.2373 16.0833 13.712 17.65C12.1873 19.2167 10.2833 20 8 20ZM8 18C9.73333 18 11.1667 17.4127 12.3 16.238C13.4333 15.0627 14 13.5833 14 11.8C14 10.5833 13.496 9.20833 12.488 7.675C11.4793 6.14167 9.98333 4.46667 8 2.65C6.01667 4.46667 4.521 6.14167 3.513 7.675C2.50433 9.20833 2 10.5833 2 11.8C2 13.5833 2.56667 15.0627 3.7 16.238C4.83333 17.4127 6.26667 18 8 18Z" />
</svg>
