<svg
  width="20"
  height="20"
  viewBox="0 0 20 20"
  fill="none"
  xmlns="http://www.w3.org/2000/svg"
>
  <path d="M3 20C2.16667 20 1.45833 19.7083 0.875 19.125C0.291667 18.5417 0 17.8333 0 17V3C0 2.16667 0.291667 1.45833 0.875 0.875C1.45833 0.291667 2.16667 0 3 0H17C17.8333 0 18.5417 0.291667 19.125 0.875C19.7083 1.45833 20 2.16667 20 3V17C20 17.8333 19.7083 18.5417 19.125 19.125C18.5417 19.7083 17.8333 20 17 20H3ZM3 18H17C17.2833 18 17.5207 17.904 17.712 17.712C17.904 17.5207 18 17.2833 18 17V3C18 2.71667 17.904 2.479 17.712 2.287C17.5207 2.09567 17.2833 2 17 2H3C2.71667 2 2.479 2.09567 2.287 2.287C2.09567 2.479 2 2.71667 2 3V17C2 17.2833 2.09567 17.5207 2.287 17.712C2.479 17.904 2.71667 18 3 18ZM4 16L8 12L9.8 13.775L12 11L16 16H4ZM6 8C5.45 8 4.97933 7.804 4.588 7.412C4.196 7.02067 4 6.55 4 6C4 5.45 4.196 4.97933 4.588 4.588C4.97933 4.196 5.45 4 6 4C6.55 4 7.021 4.196 7.413 4.588C7.80433 4.97933 8 5.45 8 6C8 6.55 7.80433 7.02067 7.413 7.412C7.021 7.804 6.55 8 6 8Z" />
</svg>
