<svg width="24" height="17" viewBox="0 0 24 17" fill="none" xmlns="http://www.w3.org/2000/svg">
<path d="M1.775 6.6L0 4.825C0.316667 4.525 0.645833 4.2375 0.9875 3.9625C1.32917 3.6875 1.675 3.425 2.025 3.175L0.7 2.225L2.125 0.2L21.775 13.95L20.35 16L12.525 10.525C12.425 10.5083 12.3292 10.5 12.2375 10.5H11.95C11.1 10.5 10.2875 10.65 9.5125 10.95C8.7375 11.25 8.03333 11.6917 7.4 12.275L5.65 10.5C6.18333 9.98333 6.77083 9.54583 7.4125 9.1875C8.05417 8.82917 8.725 8.55 9.425 8.35L7.925 7.3C7.30833 7.55 6.72083 7.85417 6.1625 8.2125C5.60417 8.57083 5.08333 8.98333 4.6 9.45L2.85 7.675C3.26667 7.275 3.7 6.90833 4.15 6.575C4.6 6.24167 5.075 5.93333 5.575 5.65L4.225 4.7C3.79167 4.98333 3.37083 5.27917 2.9625 5.5875C2.55417 5.89583 2.15833 6.23333 1.775 6.6ZM9.975 2.625L7.175 0.675C7.95833 0.441667 8.74583 0.270833 9.5375 0.1625C10.3292 0.0541667 11.1333 0 11.95 0C14.1833 0 16.3292 0.4125 18.3875 1.2375C20.4458 2.0625 22.2833 3.25833 23.9 4.825L22.125 6.6C20.7583 5.28333 19.2 4.27083 17.45 3.5625C15.7 2.85417 13.8667 2.5 11.95 2.5C11.6167 2.5 11.2875 2.50833 10.9625 2.525C10.6375 2.54167 10.3083 2.575 9.975 2.625ZM19.475 9.275L11.925 4C13.6417 4 15.2875 4.3125 16.8625 4.9375C18.4375 5.5625 19.8417 6.46667 21.075 7.65L19.475 9.275ZM11.95 16.85L15.425 13.35C14.9583 12.9333 14.4333 12.6042 13.85 12.3625C13.2667 12.1208 12.6333 12 11.95 12C11.2667 12 10.6333 12.1208 10.05 12.3625C9.46667 12.6042 8.94167 12.9333 8.475 13.35L11.95 16.85Z" fill="currentColor"/>
</svg>
