<svg width="21" height="50" viewBox="0 0 21 50" fill="none" xmlns="http://www.w3.org/2000/svg">
<rect y="2" width="21" height="48" rx="2" fill="#14BDAC"/>
<rect x="6" width="9" height="6" fill="#DBDBDB"/>
<rect x="5" y="37" width="11" height="6" rx="1" fill="#DBDBDB"/>
<rect x="7" y="22" width="7" height="9" fill="#0E867A"/>
<rect x="14" y="10" width="2" height="3" fill="#0E867A"/>
<rect x="11" y="10" width="2" height="3" fill="#0E867A"/>
<rect x="5" y="14" width="3" height="5" fill="#0E867A"/>
<mask id="mask0_4963_35428" style="mask-type:alpha" maskUnits="userSpaceOnUse" x="0" y="2" width="21" height="48">
<rect y="2" width="21" height="48" rx="2" fill="#14BDAC"/>
</mask>
<g mask="url(#mask0_4963_35428)">
<path d="M21 41L19 41C18.4477 41 18 40.5523 18 40C18 39.4477 18.4477 39 19 39L21 39L21 41Z" fill="#0E867A"/>
<path d="M0 3L2 3C2.55228 3 3 3.44772 3 4C3 4.55229 2.55228 5 2 5L-3.49691e-07 5L0 3Z" fill="#0E867A"/>
<path d="M21 37L19 37C18.4477 37 18 36.5523 18 36C18 35.4477 18.4477 35 19 35L21 35L21 37Z" fill="#0E867A"/>
<path d="M0 7L2 7C2.55228 7 3 7.44772 3 8C3 8.55229 2.55228 9 2 9L-3.49691e-07 9L0 7Z" fill="#0E867A"/>
<path d="M21 33L19 33C18.4477 33 18 32.5523 18 32C18 31.4477 18.4477 31 19 31L21 31L21 33Z" fill="#0E867A"/>
<path d="M0 11L2 11C2.55228 11 3 11.4477 3 12C3 12.5523 2.55228 13 2 13L-3.49691e-07 13L0 11Z" fill="#0E867A"/>
<path d="M21 29L19 29C18.4477 29 18 28.5523 18 28C18 27.4477 18.4477 27 19 27L21 27L21 29Z" fill="#0E867A"/>
<path d="M0 15L2 15C2.55228 15 3 15.4477 3 16C3 16.5523 2.55228 17 2 17L-3.49691e-07 17L0 15Z" fill="#0E867A"/>
<path d="M21 25L19 25C18.4477 25 18 24.5523 18 24C18 23.4477 18.4477 23 19 23L21 23L21 25Z" fill="#0E867A"/>
<path d="M0 19L2 19C2.55228 19 3 19.4477 3 20C3 20.5523 2.55228 21 2 21L-3.49691e-07 21L0 19Z" fill="#0E867A"/>
<path d="M21 21L19 21C18.4477 21 18 20.5523 18 20C18 19.4477 18.4477 19 19 19L21 19L21 21Z" fill="#0E867A"/>
<path d="M0 23L2 23C2.55228 23 3 23.4477 3 24C3 24.5523 2.55228 25 2 25L-3.49691e-07 25L0 23Z" fill="#0E867A"/>
<path d="M21 17L19 17C18.4477 17 18 16.5523 18 16C18 15.4477 18.4477 15 19 15L21 15L21 17Z" fill="#0E867A"/>
<path d="M0 27L2 27C2.55228 27 3 27.4477 3 28C3 28.5523 2.55228 29 2 29L-3.49691e-07 29L0 27Z" fill="#0E867A"/>
<path d="M21 13L19 13C18.4477 13 18 12.5523 18 12C18 11.4477 18.4477 11 19 11L21 11L21 13Z" fill="#0E867A"/>
<path d="M0 31L2 31C2.55228 31 3 31.4477 3 32C3 32.5523 2.55228 33 2 33L-3.49691e-07 33L0 31Z" fill="#0E867A"/>
<path d="M21 9L19 9C18.4477 9 18 8.55228 18 8C18 7.44772 18.4477 7 19 7L21 7L21 9Z" fill="#0E867A"/>
<path d="M0 35L2 35C2.55228 35 3 35.4477 3 36C3 36.5523 2.55228 37 2 37L-3.49691e-07 37L0 35Z" fill="#0E867A"/>
<path d="M21 5L19 5C18.4477 5 18 4.55228 18 4C18 3.44772 18.4477 3 19 3L21 3L21 5Z" fill="#0E867A"/>
<path d="M0 39L2 39C2.55228 39 3 39.4477 3 40C3 40.5523 2.55228 41 2 41L-3.49691e-07 41L0 39Z" fill="#0E867A"/>
<path d="M21 45L19 45C18.4477 45 18 44.5523 18 44C18 43.4477 18.4477 43 19 43L21 43L21 45Z" fill="#0E867A"/>
<path d="M21 49L19 49C18.4477 49 18 48.5523 18 48C18 47.4477 18.4477 47 19 47L21 47L21 49Z" fill="#0E867A"/>
<path d="M0 43L2 43C2.55228 43 3 43.4477 3 44C3 44.5523 2.55228 45 2 45L-3.49691e-07 45L0 43Z" fill="#0E867A"/>
<path d="M0 47L2 47C2.55228 47 3 47.4477 3 48C3 48.5523 2.55228 49 2 49L-3.49691e-07 49L0 47Z" fill="#0E867A"/>
</g>
</svg>
