<svg
  width="19"
  height="18"
  viewBox="0 0 19 18"
  fill="none"
  xmlns="http://www.w3.org/2000/svg"
>
  <path d="M0.5 18V0H18.5V18H0.5ZM2.5 16H16.5V4H2.5V16ZM9.5 14C8.13333 14 6.9125 13.6292 5.8375 12.8875C4.7625 12.1458 3.98333 11.1833 3.5 10C3.98333 8.81667 4.7625 7.85417 5.8375 7.1125C6.9125 6.37083 8.13333 6 9.5 6C10.8667 6 12.0875 6.37083 13.1625 7.1125C14.2375 7.85417 15.0167 8.81667 15.5 10C15.0167 11.1833 14.2375 12.1458 13.1625 12.8875C12.0875 13.6292 10.8667 14 9.5 14ZM9.5 12.5C10.4333 12.5 11.2833 12.2792 12.05 11.8375C12.8167 11.3958 13.4167 10.7833 13.85 10C13.4167 9.21667 12.8167 8.60417 12.05 8.1625C11.2833 7.72083 10.4333 7.5 9.5 7.5C8.56667 7.5 7.71667 7.72083 6.95 8.1625C6.18333 8.60417 5.58333 9.21667 5.15 10C5.58333 10.7833 6.18333 11.3958 6.95 11.8375C7.71667 12.2792 8.56667 12.5 9.5 12.5ZM9.5 11.5C9.91667 11.5 10.2708 11.3542 10.5625 11.0625C10.8542 10.7708 11 10.4167 11 10C11 9.58333 10.8542 9.22917 10.5625 8.9375C10.2708 8.64583 9.91667 8.5 9.5 8.5C9.08333 8.5 8.72917 8.64583 8.4375 8.9375C8.14583 9.22917 8 9.58333 8 10C8 10.4167 8.14583 10.7708 8.4375 11.0625C8.72917 11.3542 9.08333 11.5 9.5 11.5Z" />
</svg>
