<svg
  title="python file"
  data-testid="pythonIcon"
  width="24"
  height="24"
  viewBox="0 0 24 24"
  fill="none"
  xmlns="http://www.w3.org/2000/svg"
>
  <path d="M11.5269 11.6261H9.16163C7.50591 11.6261 6.44152 12.6905 6.44152 14.3462V16.475C6.44152 16.7115 6.32326 16.8298 6.08673 16.8298H5.02234C3.95795 16.8298 3.13009 16.3567 2.65703 15.4106C2.30223 14.701 2.0657 13.9914 2.0657 13.2818C1.94744 11.9809 1.94744 10.68 2.4205 9.37904C2.7753 8.31465 3.48489 7.48679 4.66754 7.25026H11.5269C11.6452 7.25026 11.8817 7.25026 11.8817 7.132V6.54067C11.8817 6.54067 11.6452 6.4224 11.5269 6.4224H7.50591C7.15112 6.4224 7.03285 6.30414 7.03285 5.94934V4.41189C7.03285 3.58403 7.38765 2.99271 8.09724 2.75617C8.68857 2.51964 9.27989 2.28311 9.87122 2.16485C11.2904 1.92832 12.7096 1.92832 14.1288 2.28311C14.7201 2.40138 15.3114 2.63791 15.7845 2.99271C16.2576 3.46577 16.6124 3.93883 16.4941 4.64842V8.90598C16.4941 10.5617 15.548 11.5078 13.8922 11.5078C13.0644 11.6261 12.2365 11.6261 11.5269 11.6261ZM8.21551 4.53016C8.21551 5.00322 8.5703 5.47628 9.16163 5.47628C9.63469 5.47628 10.1078 5.00322 10.1078 4.53016C10.1078 4.05709 9.63469 3.7023 9.16163 3.58403C8.5703 3.58403 8.21551 4.05709 8.21551 4.53016ZM12.4731 12.8087H14.8384C16.4941 12.8087 17.5585 11.7443 17.5585 10.0886V7.95985C17.5585 7.72332 17.6767 7.60506 17.9133 7.60506H18.9777C20.042 7.60506 20.8699 8.07812 21.343 9.02424C21.6978 9.73383 21.9343 10.4434 21.9343 11.153C22.0526 12.4539 22.0526 13.7549 21.5795 15.0558C21.2247 16.1202 20.5151 16.948 19.3325 17.1846H12.4731C12.3548 17.1846 12.1183 17.1846 12.1183 17.3028V17.8941C12.1183 17.8941 12.3548 18.0124 12.4731 18.0124H16.4941C16.8489 18.0124 16.9671 18.1307 16.9671 18.4855V20.0229C16.9671 20.8508 16.6124 21.4421 15.9028 21.6786C15.3114 21.9152 14.7201 22.1517 14.1288 22.27C12.7096 22.5065 11.2904 22.5065 9.87122 22.1517C9.27989 22.0334 8.68857 21.7969 8.21551 21.4421C7.74244 20.969 7.38765 20.496 7.50591 19.7864V15.5288C7.50591 13.8731 8.45204 12.927 10.1078 12.927C10.9356 12.8087 11.7635 12.8087 12.4731 12.8087ZM15.7845 19.9047C15.7845 19.4316 15.4297 18.9585 14.8384 18.9585C14.3653 18.9585 13.8922 19.4316 13.8922 19.9047C13.8922 20.3777 14.3653 20.7325 14.8384 20.8508C15.4297 20.8508 15.7845 20.3777 15.7845 19.9047Z" />
</svg>
