<svg
  width="16"
  height="16"
  viewBox="0 0 16 16"
  fill="none"
  xmlns="http://www.w3.org/2000/svg"
>
  <path d="M10 0H16V2H13.25L13.65 2.35C14.4667 3.16667 15.0627 4.054 15.438 5.012C15.8127 5.97067 16 6.95 16 7.95C16 9.8 15.4457 11.4457 14.337 12.887C13.229 14.329 11.7833 15.2833 10 15.75V13.65C11.2 13.2167 12.1667 12.4793 12.9 11.438C13.6333 10.396 14 9.23333 14 7.95C14 7.2 13.8583 6.47067 13.575 5.762C13.2917 5.054 12.85 4.4 12.25 3.8L12 3.55V6H10V0ZM6 16H0V14H2.75L2.35 13.65C1.48333 12.8833 0.875 12.0083 0.525 11.025C0.175 10.0417 0 9.05 0 8.05C0 6.2 0.554 4.554 1.662 3.112C2.77067 1.67067 4.21667 0.716667 6 0.25V2.35C4.8 2.78333 3.83333 3.52067 3.1 4.562C2.36667 5.604 2 6.76667 2 8.05C2 8.8 2.14167 9.529 2.425 10.237C2.70833 10.9457 3.15 11.6 3.75 12.2L4 12.45V10H6V16Z" />
</svg>
