<svg
  width="24"
  height="24"
  viewBox="0 0 24 24"
  fill="none"
  xmlns="http://www.w3.org/2000/svg"
>
  <path d="M3 21V3H17L21 7V21H3ZM5 19H19V7.85L16.15 5H5V19ZM12 18C12.8333 18 13.5417 17.7083 14.125 17.125C14.7083 16.5417 15 15.8333 15 15C15 14.1667 14.7083 13.4583 14.125 12.875C13.5417 12.2917 12.8333 12 12 12C11.1667 12 10.4583 12.2917 9.875 12.875C9.29167 13.4583 9 14.1667 9 15C9 15.8333 9.29167 16.5417 9.875 17.125C10.4583 17.7083 11.1667 18 12 18ZM6 10H15V6H6V10ZM5 19V5V19Z" />
</svg>
