<svg
  width="10"
  height="20"
  viewBox="0 0 10 20"
  fill="none"
  xmlns="http://www.w3.org/2000/svg"
>
  <path d="M5 20C3.61667 20 2.43767 19.5127 1.463 18.538C0.487667 17.5627 0 16.3833 0 15C0 14.2 0.175 13.454 0.525 12.762C0.875 12.0707 1.36667 11.4833 2 11V3C2 2.16667 2.29167 1.45833 2.875 0.875C3.45833 0.291667 4.16667 0 5 0C5.83333 0 6.54167 0.291667 7.125 0.875C7.70833 1.45833 8 2.16667 8 3V11C8.63333 11.4833 9.125 12.0707 9.475 12.762C9.825 13.454 10 14.2 10 15C10 16.3833 9.51267 17.5627 8.538 18.538C7.56267 19.5127 6.38333 20 5 20ZM4 9H6V8H5V7H6V5H5V4H6V3C6 2.71667 5.90433 2.479 5.713 2.287C5.521 2.09567 5.28333 2 5 2C4.71667 2 4.47933 2.09567 4.288 2.287C4.096 2.479 4 2.71667 4 3V9Z" />
</svg>
