<svg width="15" height="15" fill="none" xmlns="http://www.w3.org/2000/svg"><path d="M7.954 5.657a.457.457 0 0 0-.455-.456.454.454 0 0 0-.454.456v2.978a1.214 1.214 0 0 0-.734 1.36 1.217 1.217 0 0 0 1.19.984 1.21 1.21 0 0 0 1.19-.984 1.22 1.22 0 0 0-.736-1.36ZM5.379 4.593v-.001c.01-.558.237-1.09.633-1.482a2.116 2.116 0 0 1 2.973 0c.397.392.624.924.633 1.482v3.447a2.741 2.741 0 0 1-.662 4.039 2.72 2.72 0 0 1-3.918-1.137 2.746 2.746 0 0 1 .344-2.902c0-1.056-.005-2.42-.005-3.446zm.91-.001c-.004 1.265.002 2.531.002 3.797l-.122.131a1.827 1.827 0 0 0 1.332 3.068 1.813 1.813 0 0 0 1.667-1.096 1.83 1.83 0 0 0-.336-1.972L8.71 8.39V4.592c0-.323-.128-.632-.355-.86a1.209 1.209 0 0 0-2.067.86Z" fill="#4e4e4e" style="stroke-width:.90909"/></svg>