<svg width="15" height="15" fill="none" xmlns="http://www.w3.org/2000/svg"><g fill="#4e4e4e"><path d="M7.5 2.5C4.909 4.775 3.611 6.74 3.611 8.4c0 2.49 1.847 4.1 3.889 4.1s3.889-1.61 3.889-4.1c0-1.66-1.298-3.625-3.889-5.9zm0 9c-1.628 0-2.917-1.285-2.917-3.1 0-1.17.948-2.72 2.917-4.57 1.969 1.85 2.917 3.395 2.917 4.57 0 1.815-1.289 3.1-2.917 3.1z"/><path d="M7.978 6.032a.339.339 0 1 1 .625.262l-1.605 3.831a.338.338 0 0 1-.624-.261z"/><path fill-rule="evenodd" clip-rule="evenodd" d="M6.357 8.051c.473 0 .857-.511.857-1.142 0-.632-.384-1.143-.857-1.143S5.5 6.277 5.5 6.909c0 .63.384 1.142.857 1.142zm-.001-.572c.158 0 .286-.256.286-.572 0-.315-.128-.571-.286-.571-.158 0-.286.256-.286.571 0 .316.128.572.286.572zM8.644 10.34c.473 0 .857-.511.857-1.142 0-.632-.384-1.143-.857-1.143s-.857.511-.857 1.143c0 .63.384 1.143.857 1.143zm-.001-.572c.158 0 .286-.256.286-.572 0-.315-.128-.571-.286-.571-.158 0-.286.256-.286.571 0 .316.128.572.286.572z"/></g></svg>