<svg xmlns="http://www.w3.org/2000/svg" width="32" height="32" fill="none"><rect width="32" height="32" fill="#fe8e16" rx="4"/><g fill="#fff" fill-rule="evenodd" clip-rule="evenodd"><path d="M7.983 9.193H7.25v6.533h2.346V14.26h-.88V10.66h1.408l.415.623.218.327h3.951l.218-.327.416-.623h4.256v2.432h1.467V9.194h-6.508l-.218.327-.416.623h-2.38l-.416-.623-.218-.327h-.393z"/><path d="M11.156 14.485h3.632l.626.957h2.335l.626-.957h6.448v6.57h-5.744l-.625.638h-3.745l-.625-.638h-2.929zm1.466 1.467v3.636H14.7l.625.638h2.513l.625-.638h4.893v-3.637h-4.188l-.626.957H14.62l-.625-.957z"/></g></svg>