<svg xmlns="http://www.w3.org/2000/svg" width="32" height="32" fill="none"><rect width="32" height="32" fill="#fe8e16" rx="4"/><path fill="#fff" fill-rule="evenodd" d="M6.38 7.832H5.5v7.84h2.816v-1.76H7.26v-4.32H8.95l.498.748.262.392h4.741l.261-.392.499-.748h5.108v2.919h1.76V7.832h-7.81l-.261.392-.5.748h-2.856l-.499-.748-.261-.392H6.38" clip-rule="evenodd"/><path fill="#fff" fill-rule="evenodd" d="M10.187 14.182h4.359l.75 1.148H18.1l.75-1.148h7.738v7.884h-6.892l-.75.766H14.45l-.75-.766h-3.514zm1.76 1.76v4.364h2.493l.75.765h3.015l.75-.765h5.872v-4.364h-5.025l-.751 1.148h-4.706l-.751-1.148z" clip-rule="evenodd"/></svg>