<svg width="24" height="24" viewBox="0 0 24 24" fill="none" xmlns="http://www.w3.org/2000/svg">
  <path d="M12 21C10.9167 21 9.9125 20.7333 8.9875 20.2C8.0625 19.6667 7.33333 18.9333 6.8 18H4V16H6.1C6.05 15.6667 6.02083 15.3333 6.0125 15C6.00417 14.6667 6 14.3333 6 14H4V12H6C6 11.6667 6.00417 11.3333 6.0125 11C6.02083 10.6667 6.05 10.3333 6.1 10H4V8H6.8C7.03333 7.61667 7.29583 7.25833 7.5875 6.925C7.87917 6.59167 8.21667 6.3 8.6 6.05L7 4.4L8.4 3L10.55 5.15C11.0167 5 11.4917 4.925 11.975 4.925C12.4583 4.925 12.9333 5 13.4 5.15L15.6 3L17 4.4L15.35 6.05C15.7333 6.3 16.0792 6.5875 16.3875 6.9125C16.6958 7.2375 16.9667 7.6 17.2 8H20V10H17.9C17.95 10.3333 17.9792 10.6667 17.9875 11C17.9958 11.3333 18 11.6667 18 12H20V14H18C18 14.3333 17.9958 14.6667 17.9875 15C17.9792 15.3333 17.95 15.6667 17.9 16H20V18H17.2C16.6667 18.9333 15.9375 19.6667 15.0125 20.2C14.0875 20.7333 13.0833 21 12 21ZM12 19C13.1 19 14.0417 18.6083 14.825 17.825C15.6083 17.0417 16 16.1 16 15V11C16 9.9 15.6083 8.95833 14.825 8.175C14.0417 7.39167 13.1 7 12 7C10.9 7 9.95833 7.39167 9.175 8.175C8.39167 8.95833 8 9.9 8 11V15C8 16.1 8.39167 17.0417 9.175 17.825C9.95833 18.6083 10.9 19 12 19ZM10 16H14V14H10V16ZM10 12H14V10H10V12Z" fill="#F3514F"/>
</svg>
