<svg xmlns="http://www.w3.org/2000/svg" fill="none" viewBox="0 0 1392 599"><g clip-path="url(#a)"><path fill="#fff" d="M116 486a5 5 0 1 1-10.001-.001A5 5 0 0 1 116 486m22-34a5 5 0 1 1-10.001-.001A5 5 0 0 1 138 452m25 16a5 5 0 1 1-10.001-.001A5 5 0 0 1 163 468m19-29a5 5 0 1 1-10.001-.001A5 5 0 0 1 182 439m22 17a5 5 0 1 1-10.001-.001A5 5 0 0 1 204 456m17-36a5 5 0 1 1-10.001-.001A5 5 0 0 1 221 420"/><path fill="#fff" d="M109.321 484.913a2 2 0 0 0 3.358 2.174zM133 452l1.054-1.7a2 2 0 0 0-2.733.613zm25 15.5-1.054 1.7a2 2 0 0 0 2.732-.611zm18.5-28.5 1.206-1.596a2.003 2.003 0 0 0-2.884.507zm22.5 17-1.206 1.596a2 2 0 0 0 3.005-.722zm-86.321 31.087 22-34-3.358-2.174-22 34zm19.267-33.387 25 15.5 2.108-3.4-25-15.5zm27.732 14.889 18.5-28.5-3.356-2.178-18.5 28.5zm15.616-27.993 22.5 17 2.412-3.192-22.5-17zm25.505 16.278 17-35-3.598-1.748-17 35zM114 486a3 3 0 0 1-3 3v4a7 7 0 0 0 7-7zm-3 3a3 3 0 0 1-3-3h-4a7 7 0 0 0 7 7zm-3-3a3 3 0 0 1 3-3v-4a7 7 0 0 0-7 7zm3-3a3 3 0 0 1 3 3h4a7 7 0 0 0-7-7zm25-31a3 3 0 0 1-3 3v4a7 7 0 0 0 7-7zm-3 3a3 3 0 0 1-3-3h-4a7 7 0 0 0 7 7zm-3-3a3 3 0 0 1 3-3v-4a7 7 0 0 0-7 7zm3-3a3 3 0 0 1 3 3h4a7 7 0 0 0-7-7zm28 19a3 3 0 0 1-3 3v4a7 7 0 0 0 7-7zm-3 3a3 3 0 0 1-3-3h-4a7 7 0 0 0 7 7zm-3-3a3 3 0 0 1 3-3v-4a7 7 0 0 0-7 7zm3-3a3 3 0 0 1 3 3h4a7 7 0 0 0-7-7zm22-26a3 3 0 0 1-3 3v4a7 7 0 0 0 7-7zm-3 3a3 3 0 0 1-3-3h-4a7 7 0 0 0 7 7zm-3-3a3 3 0 0 1 3-3v-4a7 7 0 0 0-7 7zm3-3a3 3 0 0 1 3 3h4a7 7 0 0 0-7-7zm25 20a3 3 0 0 1-3 3v4a7 7 0 0 0 7-7zm-3 3a3 3 0 0 1-3-3h-4a7 7 0 0 0 7 7zm-3-3a3 3 0 0 1 3-3v-4a7 7 0 0 0-7 7zm3-3a3 3 0 0 1 3 3h4a7 7 0 0 0-7-7zm20-33a3 3 0 0 1-3 3v4a7 7 0 0 0 7-7zm-3 3a3 3 0 0 1-3-3h-4a7 7 0 0 0 7 7zm-3-3a3 3 0 0 1 3-3v-4a7 7 0 0 0-7 7zm3-3a3 3 0 0 1 3 3h4a7 7 0 0 0-7-7zm900-322a5 5 0 0 1-10 0 5 5 0 0 1 10 0m22-34a5 5 0 0 1-10 0 5 5 0 0 1 10 0m25 16a5 5 0 0 1-10 0 5 5 0 0 1 10 0m19-29a5 5 0 0 1-10 0 5 5 0 0 1 10 0m22 17a5 5 0 0 1-10 0 5 5 0 0 1 10 0m17-36a5 5 0 0 1-10 0 5 5 0 0 1 10 0"/><path fill="#fff" d="M1109.32 93.913c-.6.928-.33 2.166.59 2.766.93.6 2.17.335 2.77-.593l-3.36-2.172ZM1133 61l1.05-1.7a1.997 1.997 0 0 0-2.73.614zm25 15.5-1.05 1.7a2 2 0 0 0 2.73-.611zm18.5-28.5 1.21-1.596a2.01 2.01 0 0 0-2.89.507zm22.5 17-1.21 1.596c.48.36 1.1.488 1.68.349.58-.14 1.07-.533 1.33-1.071zm-86.32 31.087 22-34-3.36-2.174-22 34zm19.27-33.387 25 15.5 2.1-3.4-25-15.5zm27.73 14.889 18.5-28.5-3.36-2.178-18.5 28.5zm15.61-27.993 22.5 17 2.42-3.192-22.5-17zm25.51 16.278 17-35-3.6-1.748-17 35zM1114 95c0 1.657-1.34 3-3 3v4c3.87 0 7-3.134 7-7zm-3 3c-1.66 0-3-1.343-3-3h-4c0 3.866 3.13 7 7 7zm-3-3c0-1.657 1.34-3 3-3v-4c-3.87 0-7 3.134-7 7zm3-3c1.66 0 3 1.343 3 3h4c0-3.866-3.13-7-7-7zm25-31c0 1.657-1.34 3-3 3v4c3.87 0 7-3.134 7-7zm-3 3c-1.66 0-3-1.343-3-3h-4c0 3.866 3.13 7 7 7zm-3-3c0-1.657 1.34-3 3-3v-4c-3.87 0-7 3.134-7 7zm3-3c1.66 0 3 1.343 3 3h4c0-3.866-3.13-7-7-7zm28 19c0 1.657-1.34 3-3 3v4c3.87 0 7-3.134 7-7zm-3 3c-1.66 0-3-1.343-3-3h-4c0 3.866 3.13 7 7 7zm-3-3c0-1.657 1.34-3 3-3v-4c-3.87 0-7 3.134-7 7zm3-3c1.66 0 3 1.343 3 3h4c0-3.866-3.13-7-7-7zm22-26c0 1.657-1.34 3-3 3v4c3.87 0 7-3.134 7-7zm-3 3c-1.66 0-3-1.343-3-3h-4c0 3.866 3.13 7 7 7zm-3-3c0-1.657 1.34-3 3-3v-4c-3.87 0-7 3.134-7 7zm3-3c1.66 0 3 1.343 3 3h4c0-3.866-3.13-7-7-7zm25 20c0 1.657-1.34 3-3 3v4c3.87 0 7-3.134 7-7zm-3 3c-1.66 0-3-1.343-3-3h-4c0 3.866 3.13 7 7 7zm-3-3c0-1.657 1.34-3 3-3v-4c-3.87 0-7 3.134-7 7zm3-3c1.66 0 3 1.343 3 3h4c0-3.866-3.13-7-7-7zm20-33c0 1.657-1.34 3-3 3v4c3.87 0 7-3.134 7-7zm-3 3c-1.66 0-3-1.343-3-3h-4c0 3.866 3.13 7 7 7zm-3-3c0-1.657 1.34-3 3-3v-4c-3.87 0-7 3.134-7 7zm3-3c1.66 0 3 1.343 3 3h4c0-3.866-3.13-7-7-7z"/><path stroke="#fff" stroke-linecap="round" stroke-linejoin="round" stroke-miterlimit="1.5" stroke-width="4" d="M324.444 57.936 228.24 10.432m49.185-87.675-46.787 94.752"/><path stroke="#fff" stroke-linejoin="round" stroke-miterlimit="1.5" stroke-width="4" d="m287.46 39.674 39.769-80.54-14.213-7.017-39.769 80.539m40.27 19.884 29.242-59.22-14.213-7.018-29.242 59.22m-37.901-18.714 17.545-35.532-14.213-7.018L247.19 19.79"/><path stroke="#fff" stroke-linecap="round" stroke-linejoin="round" stroke-miterlimit="1.5" stroke-width="4" d="m524.101 592.863-97.298-45.224m47.106-88.81-44.541 95.828"/><path stroke="#fff" stroke-linejoin="round" stroke-miterlimit="1.5" stroke-width="4" d="m486.696 575.477 37.86-81.454-14.374-6.681-37.86 81.454m40.727 18.93 27.838-59.893-14.374-6.681-27.839 59.893m-38.331-17.817 16.703-35.935-14.374-6.681-16.703 35.935"/><path fill="#fff" d="m1170.04 269.871-1.95.47v.001zm9.2 38.056.48 1.944a2 2 0 0 0 1.47-2.414zm-3.83.932.47 1.944zm-2.18 3.478 1.94-.47v-.002zm.9 3.736 1.94-.47zm3.53 2.093-.48-1.944zm35.49-8.618.47 1.944zm2.18-3.479 1.94-.47zm-.9-3.736 1.94-.47v-.002zm-3.53-2.092-.47-1.944zm-3.84.932-1.94.47a1.993 1.993 0 0 0 2.41 1.474zm-9.21-38.055-1.94.471zm-4.71 53.361a1.998 1.998 0 1 0-3.98-.374zm-4.15 22.813-1.99-.187-.03.35.09.34zm11.84 53.471a2 2 0 0 0 2.44 1.432 1.996 1.996 0 0 0 1.43-2.439zm1.52-79.762a2 2 0 0 0-2.44-1.432 1.996 1.996 0 0 0-1.43 2.439zm9.8 53.579a2 2 0 0 0 2.44 1.433 1.996 1.996 0 0 0 1.43-2.439zm-31.96-115.605c-8.71 2.115-14.18 10.751-12.1 19.366l3.89-.94c-1.54-6.381 2.5-12.924 9.15-14.539zm-12.1 19.367 9.21 38.055 3.89-.94-9.21-38.056zm10.68 35.641-3.84.933.95 3.887 3.84-.932zm-3.84.933c-2.6.632-4.29 3.236-3.65 5.893l3.89-.944c-.1-.418.16-.929.71-1.062zm-3.65 5.891.91 3.736 3.88-.94-.9-3.736zm.91 3.736c.64 2.657 3.33 4.201 5.94 3.566l-.95-3.887c-.54.133-1-.198-1.11-.619zm5.94 3.566 35.49-8.617-.94-3.888-35.5 8.618zm35.49-8.617c2.61-.633 4.3-3.237 3.65-5.893l-3.88.94c.1.423-.16.933-.71 1.066zm3.65-5.893-.9-3.736-3.89.941.91 3.736zm-.9-3.738c-.64-2.654-3.34-4.194-5.94-3.564l.94 3.888c.55-.133 1.01.199 1.11.62zm-5.94-3.564-3.84.932.94 3.888 3.84-.933zm-1.43 2.406-9.2-38.055-3.89.941 9.21 38.054zm-9.2-38.055c-2.09-8.618-10.9-13.787-19.61-11.673l.94 3.887c6.65-1.615 13.23 2.346 14.78 8.727zm-10.64 53.457-2.16 23 3.98.374 2.16-23zm-2.1 23.69 13.77 52.968 3.87-1.007-13.77-52.968zm11.42-25.787 13.67 52.572 3.87-1.006-13.67-52.573z"/><path fill="#fff" stroke="#fff" stroke-linecap="round" stroke-linejoin="round" stroke-width="4" d="M555.797 404.206c-5.179 2.83-7.143 9.223-4.386 14.281l13.997 25.669-2.589 1.414c-1.064.581-1.467 1.893-.9 2.93l1.374 2.52c.566 1.038 1.886 1.409 2.948.828l23.937-13.076c1.062-.58 1.465-1.892.899-2.93l-1.374-2.52c-.567-1.037-1.886-1.407-2.949-.828l-2.589 1.415-13.996-25.669c-2.758-5.058-9.193-6.863-14.372-4.034"/><path fill="#fff" d="m551.411 418.487-1.756.957v.001zm13.997 25.669.959 1.755a2 2 0 0 0 .797-2.713zm-2.589 1.414.958 1.756h.001zm-.9 2.93 1.756-.958-.001-.001zm1.374 2.52 1.756-.957v-.001zm2.948.828-.959-1.756-.001.001zm23.937-13.076.959 1.755zm.899-2.93 1.756-.958zm-1.374-2.52 1.756-.958-.001-.001zm-2.949-.828-.957-1.756-.001.001zm-2.589 1.415-1.756.957a2 2 0 0 0 2.715.798zm-13.996-25.669-1.756.958zm7.414 39.314a2 2 0 0 0-3.944.669zm.916 17.341-1.971.335.058.346.174.306zm18.432 36.529a2 2 0 1 0 3.479-1.974zm-13.438-58.323a2 2 0 1 0-3.478 1.974zm16.542 37.251a2 2 0 0 0 3.479-1.974zm-45.197-77.901c-6.107 3.337-8.49 10.926-5.183 16.993l3.512-1.914c-2.207-4.049-.662-9.246 3.589-11.568zm-5.183 16.994 13.997 25.668 3.512-1.915-13.997-25.669zm14.794 22.956-2.589 1.414 1.918 3.511 2.589-1.415zm-2.589 1.414c-1.991 1.087-2.815 3.596-1.696 5.644l3.51-1.918c-.011-.019-.018-.046-.005-.09a.22.22 0 0 1 .108-.125zm-1.697 5.642 1.374 2.52 3.512-1.915-1.374-2.52zm1.374 2.52c1.116 2.048 3.671 2.716 5.664 1.625l-1.92-3.509a.2.2 0 0 1-.159.023c-.043-.012-.062-.033-.073-.053zm5.663 1.626 23.937-13.076-1.918-3.51-23.937 13.075zm23.937-13.076c1.991-1.088 2.811-3.596 1.696-5.643l-3.512 1.915c.011.021.018.049.005.093a.22.22 0 0 1-.107.125zm1.696-5.643-1.374-2.52-3.512 1.915 1.374 2.52zm-1.375-2.521c-1.118-2.046-3.669-2.711-5.661-1.625l1.915 3.512a.21.21 0 0 1 .162-.023.11.11 0 0 1 .074.054zm-5.662-1.624-2.59 1.414 1.918 3.511 2.589-1.415zm.125 2.212-13.996-25.668-3.512 1.915 13.996 25.668zm-13.996-25.668c-3.309-6.069-10.979-8.169-17.087-4.832l1.918 3.511c4.25-2.322 9.45-.812 11.657 3.236zm1.714 40.94 2.889 17.007 3.943-.67-2.888-17.006zm3.121 17.659 20.171 35.542 3.479-1.974-20.171-35.542zm3.255-20.807 20.02 35.277 3.479-1.974-20.021-35.277z"/><path fill="#fff" stroke="#fff" stroke-linecap="round" stroke-linejoin="round" stroke-width="4" d="M924.304 121.379c-3.89 4.437-3.535 11.116.792 14.918l21.971 19.29-1.945 2.218c-.799.911-.726 2.282.163 3.061l2.156 1.894c.889.78 2.256.674 3.053-.237l17.981-20.51c.797-.91.725-2.28-.164-3.06l-2.157-1.894c-.888-.779-2.254-.673-3.053.236l-1.945 2.219-21.969-19.289c-4.329-3.802-10.993-3.284-14.883 1.154"/><path fill="#fff" d="m925.096 136.297-1.32 1.502.001.001zm21.971 19.29 1.504 1.318a2 2 0 0 0-.184-2.821zm-1.945 2.218 1.504 1.319zm.163 3.061 1.319-1.503-.001-.001zm2.156 1.894 1.32-1.503zm3.053-.237-1.503-1.319-.002.002zm17.981-20.51 1.504 1.318zm-.164-3.06 1.32-1.503zm-2.157-1.894 1.32-1.503-.001-.001zm-3.053.236-1.503-1.319-.001.001zm-1.945 2.219-1.319 1.503a1.997 1.997 0 0 0 2.823-.184zm-21.969-19.289-1.32 1.502zm20.481 34.366a2 2 0 0 0-3.473 1.985zm6.824 15.968-1.737.992.175.306.268.227zm29.869 27.963a2 2 0 1 0 2.588-3.05zm-32.674-50.145a2 2 0 1 0-2.588 3.05zm28.343 29.291a2 2 0 1 0 2.587-3.051zM922.8 120.06c-4.587 5.233-4.215 13.18.976 17.739l2.64-3.005c-3.464-3.043-3.801-8.455-.608-12.097zm.977 17.74 21.971 19.289 2.639-3.005-21.971-19.29zm21.786 16.468-1.945 2.219 3.008 2.637 1.945-2.219zm-1.945 2.219c-1.495 1.705-1.407 4.344.348 5.883l2.637-3.008c-.017-.015-.033-.037-.035-.083a.22.22 0 0 1 .058-.155zm.347 5.882 2.157 1.893 2.639-3.005-2.157-1.894zm2.157 1.893c1.752 1.539 4.381 1.288 5.878-.422l-3.011-2.634a.2.2 0 0 1-.141.075.11.11 0 0 1-.087-.024zm5.876-.421 17.981-20.51-3.008-2.636-17.98 20.509zm17.981-20.51c1.495-1.705 1.403-4.343-.348-5.881l-2.64 3.005c.018.016.035.04.037.086a.21.21 0 0 1-.057.154zm-.348-5.881-2.157-1.894-2.639 3.006 2.157 1.893zm-2.158-1.895c-1.753-1.537-4.378-1.284-5.875.421l3.006 2.639a.21.21 0 0 1 .145-.077c.044-.003.069.009.087.025zm-5.876.422-1.945 2.219 3.008 2.637 1.945-2.219zm.879 2.034-21.97-19.289-2.639 3.005 21.97 19.29zm-21.97-19.289c-5.194-4.561-13.118-3.896-17.706 1.338l3.008 2.637c3.192-3.641 8.595-4.012 12.059-.97zm15.689 37.854 8.56 14.975 3.473-1.985-8.56-14.975zm9.003 15.508 31.163 26.438 2.588-3.05-31.163-26.438zm-4.099-20.657 30.931 26.241 2.587-3.051-30.93-26.24zM-58.904 524.297l-1.32 1.503zm21.971 19.29 1.504 1.318a2 2 0 0 0-.184-2.821zm-1.945 2.218 1.504 1.319zm.163 3.061 1.32-1.503-.002-.001zm2.156 1.894 1.32-1.503zm3.053-.237-1.503-1.319-.002.002zm17.981-20.51 1.504 1.318zm-.164-3.06 1.32-1.503zm-2.157-1.894 1.32-1.503-.001-.001zm-3.053.236-1.502-1.319-.002.001zm-1.945 2.219-1.32 1.503a2 2 0 0 0 2.824-.184zm-21.97-19.289-1.319 1.502v.001l1.32-1.503Zm20.482 34.366a2 2 0 0 0-3.473 1.985zm6.824 15.968-1.736.992.174.306.268.227zm29.87 27.963a2 2 0 1 0 2.587-3.05zm-32.675-50.145a2 2 0 1 0-2.588 3.05zM8.03 565.668a2 2 0 0 0 2.587-3.051zM-61.2 508.06c-4.587 5.233-4.215 13.18.977 17.74l2.64-3.006c-3.465-3.043-3.802-8.455-.609-12.097zm.977 17.74 21.97 19.29 2.64-3.006-21.971-19.29-2.64 3.006Zm21.786 16.468-1.945 2.219 3.008 2.637 1.945-2.219zm-1.945 2.219c-1.495 1.705-1.407 4.345.348 5.883l2.637-3.008c-.017-.015-.033-.037-.035-.083a.22.22 0 0 1 .058-.155zm.347 5.882 2.157 1.893 2.639-3.005-2.157-1.894zm2.157 1.893c1.752 1.539 4.381 1.288 5.877-.422l-3.01-2.634a.2.2 0 0 1-.141.075.11.11 0 0 1-.087-.024zm5.876-.421 17.98-20.51-3.007-2.636-17.98 20.509zm17.981-20.51c1.495-1.705 1.403-4.343-.348-5.881l-2.64 3.005c.018.016.035.04.037.086a.22.22 0 0 1-.057.154zm-.348-5.881-2.157-1.894-2.64 3.006 2.158 1.894zm-2.158-1.895c-1.753-1.537-4.378-1.284-5.874.421l3.005 2.639a.22.22 0 0 1 .145-.077c.044-.003.07.009.087.025zm-5.876.422-1.945 2.219 3.008 2.637 1.945-2.219zm.879 2.034-21.97-19.289-2.639 3.006 21.97 19.289zm-21.97-19.289c-5.194-4.561-13.118-3.895-17.706 1.338l3.008 2.637c3.192-3.641 8.595-4.012 12.06-.97zm15.69 37.854 8.56 14.975 3.472-1.985-8.56-14.975-3.473 1.985Zm9.002 15.508 31.163 26.438 2.588-3.05-31.163-26.438zm-4.1-20.657L8.03 565.668l2.587-3.051-30.93-26.24-2.588 3.05Z"/><path stroke="#fff" stroke-linecap="round" stroke-linejoin="round" stroke-width="4" d="M66.816 538.928H21m45.816 0-20.722 20.927m20.722-20.927L46.094 518m10.09 49.072H102m-45.816 0 20.722-20.927m-20.722 20.927L76.906 588m679.91-264.072H711m45.816 0-20.722 20.927m20.722-20.927L736.094 303m10.09 49.072H792m-45.816 0 20.722-20.927m-20.722 20.927L766.906 373m298.914-214.072H1020m45.82 0-20.73 20.927m20.73-20.927L1045.09 138m10.09 49.072H1101m-45.82 0 20.73-20.927m-20.73 20.927L1075.91 208M584.744 90.743l29.068-12.727-12.581-29.13M562.008 33.17 532.94 45.896l12.581 29.131m49.011-36.261-42.311 46.38M237.16 620.345l27.217-16.313-16.177-27.298m-40.901-10.61-27.217 16.313 16.177 27.298m44.012-42.189-36.082 51.375M1236.51 227.15l27-16.663-16.53-27.087m-41.03-10.081-27 16.663 16.52 27.087m43.47-42.754-35.42 51.837m-11.6 262.439 22.72-22.151-22.03-22.831m-42.25-.889-22.72 22.151 22.04 22.831m33.09-51.204-23.26 58.313"/><circle cx="633.852" cy="355.685" r="5.081" fill="#fff" transform="rotate(-15 633.852 355.685)"/><circle cx="606.117" cy="363.116" r="5.081" fill="#fff" transform="rotate(-15 606.117 363.116)"/><path stroke="#fff" stroke-linecap="round" stroke-linejoin="round" stroke-width="4" d="m574.15 329.122 67.864-18.184m-24.85-8.536 8.057 30.066m-32.11-23.621 8.057 30.066M547 311.996l10.656-2.855a2.71 2.71 0 0 1 2.897 1.024l32.034 43.979a2.715 2.715 0 0 0 2.898 1.024l42.44-11.372m-73.138-27.819 75.061-20.113c1.844-.494 3.609 1.02 3.401 2.918l-3.106 28.357a2.715 2.715 0 0 1-1.996 2.327l-53.185 14.25z"/><circle cx="1317.85" cy="332.685" r="5.081" fill="#fff" transform="rotate(-15 1317.85 332.685)"/><circle cx="1290.12" cy="340.116" r="5.081" fill="#fff" transform="rotate(-15 1290.12 340.116)"/><path stroke="#fff" stroke-linecap="round" stroke-linejoin="round" stroke-width="4" d="m1258.15 306.122 67.86-18.184m-24.85-8.536 8.06 30.066m-32.11-23.621 8.06 30.066M1231 288.996l10.66-2.855a2.705 2.705 0 0 1 2.89 1.024l32.04 43.979a2.705 2.705 0 0 0 2.89 1.024l42.45-11.372m-73.14-27.819 75.06-20.113c1.84-.494 3.61 1.02 3.4 2.918l-3.11 28.357a2.71 2.71 0 0 1-1.99 2.327l-53.19 14.25z"/><path stroke="#fff" stroke-width="4" d="m736.779 82.035-23.021 22.619c-2.977 2.925-7.78 2.9-10.727-.056a7.49 7.49 0 0 1 .056-10.65l23.02-22.618m25.711 15.477c-16.063-.083-29.018-13.079-28.935-29.026s13.171-28.807 29.234-28.724 29.018 13.079 28.935 29.026-13.171 28.807-29.234 28.724Zm233.157 292.586 19.895 16.556c2.58 2.142 2.94 5.976.82 8.565a6.01 6.01 0 0 1-8.505.81l-19.897-16.556m10.289-21.759c1.222 12.825-8.109 24.205-20.842 25.419-12.733 1.213-24.045-8.2-25.267-21.026-1.222-12.825 8.109-24.205 20.842-25.418s24.045 8.2 25.267 21.025ZM280.702 518.393l29.442 29.773c3.808 3.851 3.808 10.095 0 13.946a9.674 9.674 0 0 1-13.79 0l-29.443-29.774m19.869-33.528c0 20.882-16.74 37.811-37.39 37.811S212 519.692 212 498.81 228.74 461 249.39 461s37.39 16.928 37.39 37.81Zm1006.44-375.701 32.3 32.243c4.18 4.171 4.22 10.976.1 15.199a10.545 10.545 0 0 1-15.03.097l-32.3-32.244m21.42-36.681c.14 22.759-17.98 41.327-40.49 41.471-22.5.145-40.87-18.188-41.01-40.947-.15-22.759 17.98-41.326 40.48-41.47 22.51-.145 40.87 18.187 41.02 40.946ZM35.364 483c0-2.597-.47-5.194-1.176-7.792l3.766-2.125c.941-.472 1.412-1.889.706-2.833l-4.708-8.264c-.47-.944-1.883-1.417-2.824-.708l-3.767 2.125c-3.53-3.778-8.238-6.375-13.417-7.792v-4.486A2.113 2.113 0 0 0 11.825 449h-9.65a2.113 2.113 0 0 0-2.12 2.125v4.486q-7.767 2.125-13.416 7.792l-3.766-2.125c-.942-.472-2.354-.236-2.825.708l-4.708 8.264c-.47.944-.235 2.361.706 2.833l3.766 2.125c-.706 2.361-1.177 4.959-1.177 7.792s.471 5.194 1.177 7.792l-3.766 2.125c-.941.472-1.412 1.889-.706 2.833l4.708 8.264c.47.944 1.883 1.417 2.825.708l3.766-2.125c3.53 3.778 8.238 6.375 13.417 7.792v4.486c0 1.18.942 2.125 2.119 2.125h9.65a2.113 2.113 0 0 0 2.119-2.125v-4.486q7.768-2.125 13.417-7.792l3.767 2.125c.941.472 2.353.236 2.824-.708l4.708-8.264c.47-.944.236-2.361-.706-2.833l-3.767-2.125c.707-2.361 1.177-4.959 1.177-7.792Z"/><path stroke="#fff" stroke-width="4" d="M18.323 483.493c0 5.987-4.849 10.84-10.83 10.84-5.982 0-10.831-4.853-10.831-10.84s4.849-10.841 10.83-10.841c5.982 0 10.831 4.854 10.831 10.841ZM159.364 617c0-2.597-.47-5.194-1.177-7.792l3.767-2.125c.942-.472 1.412-1.889.706-2.833l-4.708-8.264c-.471-.944-1.883-1.417-2.824-.708l-3.767 2.125c-3.53-3.778-8.238-6.375-13.417-7.792v-4.486a2.113 2.113 0 0 0-2.119-2.125h-9.651a2.113 2.113 0 0 0-2.118 2.125v4.486q-7.768 2.125-13.417 7.792l-3.766-2.125c-.942-.472-2.354-.236-2.825.708l-4.708 8.264c-.47.944-.235 2.361.706 2.833l3.766 2.125c-.706 2.361-1.177 4.959-1.177 7.792s.471 5.194 1.177 7.792l-3.766 2.125c-.941.472-1.412 1.889-.706 2.833l4.708 8.264c.471.944 1.883 1.417 2.825.708l3.766-2.125c3.531 3.778 8.238 6.375 13.417 7.792v4.486c0 1.18.942 2.125 2.118 2.125h9.651a2.114 2.114 0 0 0 2.119-2.125v-4.486q7.768-2.125 13.417-7.792l3.767 2.125c.941.472 2.353.236 2.824-.708l4.708-8.264c.471-.944.236-2.361-.706-2.833l-3.767-2.125c.707-2.361 1.177-4.959 1.177-7.792Z"/><path stroke="#fff" stroke-width="4" d="M142.323 617.493c0 5.987-4.849 10.84-10.831 10.84s-10.83-4.853-10.83-10.84 4.849-10.841 10.83-10.841c5.982 0 10.831 4.854 10.831 10.841ZM1046.16 103c0-2.063-.37-4.125-.92-6.188l2.94-1.687c.74-.375 1.11-1.5.55-2.25l-3.67-6.563c-.37-.75-1.47-1.124-2.21-.562l-2.94 1.688c-2.76-3-6.44-5.063-10.49-6.188v-3.563c0-.937-.73-1.687-1.65-1.687h-7.54c-.92 0-1.66.75-1.66 1.688v3.562c-4.04 1.125-7.53 3.188-10.48 6.188l-2.94-1.688c-.74-.375-1.84-.188-2.21.563l-3.674 6.562c-.368.75-.184 1.875.551 2.25l2.943 1.688c-.55 1.874-.92 3.937-.92 6.187s.37 4.125.92 6.188l-2.943 1.687c-.735.375-1.103 1.5-.551 2.25l3.674 6.563c.37.75 1.47 1.124 2.21.562l2.94-1.688c2.76 3 6.44 5.063 10.48 6.188v3.562c0 .938.74 1.688 1.66 1.688h7.54c.92 0 1.65-.75 1.65-1.688v-3.562c4.05-1.125 7.54-3.188 10.49-6.188l2.94 1.688c.74.375 1.84.188 2.21-.562l3.67-6.563c.37-.75.19-1.875-.55-2.25l-2.94-1.687c.55-1.875.92-3.938.92-6.188Z"/><path stroke="#fff" stroke-width="4" d="M1032.85 103.391c0 4.755-3.79 8.609-8.47 8.609-4.67 0-8.46-3.854-8.46-8.609 0-4.754 3.79-8.608 8.46-8.608 4.68 0 8.47 3.854 8.47 8.608ZM1405.16 149c0-2.063-.37-4.125-.92-6.188l2.94-1.687c.74-.375 1.11-1.5.55-2.25l-3.67-6.563c-.37-.75-1.47-1.124-2.21-.562l-2.94 1.688c-2.76-3-6.44-5.063-10.49-6.188v-3.563c0-.937-.73-1.687-1.65-1.687h-7.54c-.92 0-1.66.75-1.66 1.687v3.563c-4.04 1.125-7.53 3.188-10.48 6.188l-2.94-1.688c-.74-.375-1.84-.188-2.21.562l-3.67 6.563c-.37.75-.19 1.875.55 2.25l2.94 1.687c-.55 1.875-.92 3.938-.92 6.188s.37 4.125.92 6.188l-2.94 1.687c-.74.375-1.11 1.5-.55 2.25l3.67 6.563c.37.75 1.47 1.124 2.21.562l2.94-1.688c2.76 3 6.44 5.063 10.48 6.188v3.562c0 .938.74 1.688 1.66 1.688h7.54c.92 0 1.65-.75 1.65-1.688v-3.562c4.05-1.125 7.54-3.188 10.49-6.188l2.94 1.688c.74.375 1.84.188 2.21-.562l3.67-6.563c.37-.75.19-1.875-.55-2.25l-2.94-1.687c.55-1.875.92-3.938.92-6.188Z"/><path stroke="#fff" stroke-width="4" d="M1391.85 149.391c0 4.755-3.79 8.609-8.47 8.609-4.67 0-8.46-3.854-8.46-8.609 0-4.754 3.79-8.608 8.46-8.608 4.68 0 8.47 3.854 8.47 8.608ZM816.91 235c0-2.979-.53-5.958-1.324-8.938l4.237-2.437c1.059-.542 1.589-2.167.794-3.25l-5.296-9.479c-.529-1.084-2.118-1.625-3.177-.813l-4.237 2.438c-3.973-4.333-9.269-7.313-15.095-8.938v-5.146c0-1.354-1.059-2.437-2.383-2.437h-10.858c-1.324 0-2.383 1.083-2.383 2.437v5.146q-8.739 2.438-15.094 8.938l-4.237-2.438c-1.06-.541-2.649-.271-3.178.813l-5.297 9.479c-.529 1.083-.264 2.708.795 3.25l4.237 2.437c-.794 2.709-1.324 5.688-1.324 8.938s.53 5.958 1.324 8.938l-4.237 2.437c-1.059.542-1.589 2.167-.795 3.25l5.297 9.479c.529 1.084 2.118 1.625 3.178.813l4.237-2.438c3.972 4.333 9.268 7.313 15.094 8.938v5.145c0 1.355 1.059 2.438 2.383 2.438h10.858c1.324 0 2.383-1.083 2.383-2.438v-5.145q8.74-2.438 15.095-8.938l4.237 2.438c1.059.541 2.648.271 3.177-.813l5.296-9.479c.53-1.083.265-2.708-.794-3.25l-4.237-2.437c.794-2.709 1.324-5.688 1.324-8.938Z"/><path stroke="#fff" stroke-width="4" d="M797.738 235.565c0 6.868-5.455 12.435-12.184 12.435-6.73 0-12.185-5.567-12.185-12.435 0-6.867 5.455-12.435 12.185-12.435 6.729 0 12.184 5.568 12.184 12.435ZM1384.91 571c0-2.979-.53-5.958-1.32-8.938l4.23-2.437c1.06-.542 1.59-2.167.8-3.25l-5.3-9.479c-.53-1.084-2.12-1.625-3.18-.813l-4.23 2.438c-3.98-4.333-9.27-7.313-15.1-8.938v-5.146c0-1.354-1.06-2.437-2.38-2.437h-10.86c-1.32 0-2.38 1.083-2.38 2.437v5.146c-5.83 1.625-10.86 4.605-15.1 8.938l-4.23-2.438c-1.06-.541-2.65-.271-3.18.813l-5.3 9.479c-.53 1.083-.26 2.708.8 3.25l4.23 2.437c-.79 2.709-1.32 5.688-1.32 8.938s.53 5.958 1.32 8.938l-4.23 2.437c-1.06.542-1.59 2.167-.8 3.25l5.3 9.479c.53 1.084 2.12 1.625 3.18.813l4.23-2.438c3.98 4.333 9.27 7.313 15.1 8.938v5.145c0 1.355 1.06 2.438 2.38 2.438h10.86c1.32 0 2.38-1.083 2.38-2.438v-5.145c5.83-1.625 10.86-4.605 15.1-8.938l4.23 2.438c1.06.541 2.65.271 3.18-.813l5.3-9.479c.53-1.083.26-2.708-.8-3.25l-4.23-2.437c.79-2.709 1.32-5.688 1.32-8.938Z"/><path stroke="#fff" stroke-width="4" d="M1365.74 571.565c0 6.868-5.46 12.435-12.19 12.435s-12.18-5.567-12.18-12.435c0-6.867 5.45-12.435 12.18-12.435s12.19 5.568 12.19 12.435Zm-287.67-130.494c-26.51-24.642-68.08-23.514-93.455 2.28-26.211 26.623-24.019 70.339 3.218 95.703l66.117 61.554c3.64 3.299 9.48 1.839 11.15-2.713l30.31-86.993c8.29-23.895 2.41-51.478-17.23-69.831z"/><path stroke="#fff" stroke-width="4" d="M1060.02 481.566c4.01 14.965-4.98 30.378-20.09 34.425-15.1 4.047-30.59-4.805-34.6-19.77s4.98-30.378 20.08-34.425 30.6 4.805 34.61 19.77Zm-929.759-374.53c-3.121-14.83-17.617-24.48-32.526-21.78-15.394 2.782-25.198 18.268-22.001 33.521l7.762 37.021c.449 2.007 2.798 2.917 4.471 1.765l31.37-22.448c8.603-6.175 13.252-17.031 10.96-28.053z"/><path stroke="#fff" stroke-width="4" d="M114.309 116.534c-2.241 6.088-9.038 9.19-15.182 6.929s-9.31-9.03-7.069-15.118 9.038-9.19 15.183-6.93c6.144 2.262 9.309 9.03 7.068 15.119Z"/><path fill="#fff" d="M502.304 208.309a.5.5 0 0 1 .866 0l5.566 9.641a.5.5 0 0 1-.433.75h-11.132a.5.5 0 0 1-.433-.75zm37.83 20.536a.5.5 0 0 1 .433.75l-5.566 9.641a.5.5 0 0 1-.866 0l-5.566-9.641a.5.5 0 0 1 .433-.75zm-63.789 0a.5.5 0 0 1 .433.75l-5.566 9.641a.5.5 0 0 1-.866 0l-5.566-9.641a.5.5 0 0 1 .433-.75zm26.825 62.846a.5.5 0 0 1-.866 0l-5.566-9.641a.5.5 0 0 1 .433-.75h11.132a.5.5 0 0 1 .433.75zm-37.957-19.343a.5.5 0 0 1-.433-.75l5.566-9.641a.5.5 0 0 1 .866 0l5.566 9.641a.5.5 0 0 1-.433.75zm63.789 0a.5.5 0 0 1-.433-.75l5.566-9.641a.5.5 0 0 1 .866 0l5.566 9.641a.5.5 0 0 1-.433.75z"/><circle cx="502.544" cy="250" r="21.221" stroke="#fff" stroke-width="4"/><path fill="#fff" d="m357.668 427.504.334-1.971zm-26.776 14.994 1.855.748v-.001zm1.121 20.845-1.762.946zm.989 5.853 1.973.33v-.002zm-.409 2.449-1.972-.329zm2.711 5.536 1.969.352.254-1.42-1.267-.689zm-1.753 9.801 1.968.355v-.002zm1.495 2.397-.549 1.923h.001zm14.594 4.159.548-1.923zm2.534-1.247 1.859.738zm3.678-9.254.113-1.997-1.439-.082-.533 1.34zm5.22-3.276 1.85.761zm.945-2.297-1.85-.761zm3.909-4.443-.998-1.733zm11.366-14.532 1.923.548zm-2.853-19.851-1.692 1.067zm-16.8 21.789-1.81-.851-.029.06-.024.062zm.01-1.77-1.822.826.002.004zm-1.339-1.156.553-1.922h-.001zm-7.583-2.175-.552 1.923zm-1.749.27-1.103-1.669-.001.002zm-.928 1.506 1.97.343.009-.052.006-.052zm14.489-51.108a2 2 0 1 0-3.986.334zm-3.012 12.255a2 2 0 1 0 3.986-.334zm28.721 4.206a2 2 0 0 0-2.443-3.167zm-11.614 3.886a2 2 0 0 0 2.442 3.168zm1.284-14.628a2 2 0 1 0-3.374-2.148zm-9.601 7.603a2.001 2.001 0 0 0 3.374 2.149zm-20.165-11.636a2 2 0 0 0-3.629 1.683zm1.469 12.668a2 2 0 0 0 3.629-1.684zm10.381 5.185c-12.178-2.062-24.35 4.753-28.966 16.218l3.711 1.494c3.914-9.722 14.265-15.516 24.588-13.769zm-28.965 16.218c-2.966 7.356-2.525 15.575 1.214 22.538l3.524-1.892c-3.175-5.912-3.553-12.889-1.028-19.151zm1.214 22.538a7.24 7.24 0 0 1 .778 4.58l3.946.655a11.24 11.24 0 0 0-1.2-7.128zm.778 4.578-.408 2.449 3.945.658.409-2.448zm-.408 2.449c-.524 3.143 1.047 6.164 3.728 7.622l1.911-3.514a3.31 3.31 0 0 1-1.694-3.45zm2.714 5.513-1.753 9.801 3.937.705 1.754-9.802zm-1.753 9.799a4.105 4.105 0 0 0 2.915 4.674l1.098-3.846a.105.105 0 0 1-.076-.119zm2.916 4.674 14.594 4.159 1.096-3.846-14.594-4.159zm14.593 4.159a4.105 4.105 0 0 0 4.942-2.432l-3.717-1.477a.11.11 0 0 1-.128.063zm4.942-2.432 3.677-9.254-3.717-1.477-3.677 9.254zm1.705-7.996a7.31 7.31 0 0 0 7.184-4.511L359.223 479a3.31 3.31 0 0 1-3.258 2.04zm7.184-4.511.945-2.298-3.7-1.521-.944 2.298zm.945-2.298a7.2 7.2 0 0 1 3.057-3.469l-1.996-3.467a11.2 11.2 0 0 0-4.761 5.415zm3.056-3.469c6.021-3.465 10.391-9.05 12.292-15.718l-3.847-1.096c-1.614 5.663-5.318 10.399-10.44 13.347zm12.292-15.718a26.6 26.6 0 0 0-3.085-21.466l-3.383 2.134a22.61 22.61 0 0 1 2.621 18.236zm-3.085-21.466c-4.081-6.472-10.533-10.752-18.128-12.038l-.668 3.943c6.485 1.099 11.944 4.728 15.413 10.229zm-24.752 44.365 8.124-20.781-3.726-1.457-8.124 20.781zm8.071-20.659a4.1 4.1 0 0 0 .02-3.45l-3.64 1.66a.1.1 0 0 1 0 .089zm.022-3.446a4.11 4.11 0 0 0-2.608-2.252l-1.105 3.845q.05.014.069.059zm-2.609-2.252-7.584-2.175-1.103 3.845 7.584 2.175zm-7.584-2.175a4.11 4.11 0 0 0-3.403.523l2.206 3.337a.11.11 0 0 1 .094-.015zm-3.404.525a4.1 4.1 0 0 0-1.81 2.934l3.971.478a.1.1 0 0 1 .048-.078zm-1.795 2.829-3.869 22.201 3.941.686 3.869-22.2zm12.474-50.43q.248 2.975.486 5.954.24 2.98.488 5.967l3.986-.334q-.247-2.976-.487-5.954-.238-2.98-.487-5.967zm27.252 12.96a3448 3448 0 0 1-4.583 3.524q-2.293 1.76-4.588 3.529l2.442 3.168q2.29-1.764 4.583-3.525a3331 3331 0 0 0 4.589-3.529zm-11.261-9.723a2344 2344 0 0 1-3.111 4.872q-1.559 2.436-3.116 4.879l3.374 2.149q1.553-2.437 3.112-4.873 1.558-2.436 3.115-4.879zm-30.021-.202 2.549 5.493 2.549 5.492 3.629-1.684-2.549-5.492-2.549-5.492zm-6.687 70.582 21.228 5.688 1.035-3.864-21.228-5.688zM1.884 203.07l-1.54-1.275H.342l1.54 1.275Zm-.615 46.798 1.575-1.233zm28.384 14.413-.061 1.999zm8.486 3.157 1.271-1.543v-.001zm2.922 2.407-1.271 1.544v.001zm9.379.641 1.289-1.528-1.103-.93-1.23.753zm11.608 9.79 1.29-1.527-.001-.002zm4.305-.147 1.391 1.436zm16.62-16.103-1.39-1.437zm.286-4.299 1.57-1.24h-.001zm-9.418-11.913-1.672-1.097-.791 1.206.894 1.131 1.57-1.24Zm-.345-9.393 1.584-1.221v-.001zm-2.314-2.999-1.584 1.221v.001zm-2.887-8.55-2-.003v.001zM57.77 200.78l1.436-1.392zm-28.393-11.37.078 1.999zm15.966 38.803-1.641 1.142.038.055.041.052zm-2.329-1.363-.195 1.991h.004zm-2.547.887-1.389-1.439zm-8.655 8.357 1.389 1.439zm-.978 2.515-1.996.121v.002zm1.281 2.375 1.283-1.535-.04-.033-.043-.032zm-56.898-57.157a2 2 0 1 0-1.704 3.619zM-10 195.25a2 2 0 0 0 1.704-3.619zm25.968-33.636a2 2 0 1 0-3.965.532zm-1.643 18.023a2 2 0 0 0 3.965-.531zm-20.311-12.226a2 2 0 1 0-3.548 1.848zm4.583 17.508a2 2 0 0 0 3.548-1.848zm-31.77 19.29a2 2 0 0 0-.356 3.985l.355-3.985Zm18.038 5.628a2 2 0 0 0 .356-3.985zm15.479-8.042c-11.694 14.131-11.967 34.856-.649 49.306l3.15-2.466c-10.16-12.972-9.914-31.609.58-44.29zm-.65 49.305c7.264 9.283 18.165 14.819 29.899 15.18l.123-3.998c-10.542-.325-20.335-5.294-26.871-13.647l-3.15 2.465Zm29.899 15.18c2.683.083 5.267 1.05 7.276 2.703l2.541-3.089c-2.706-2.226-6.145-3.503-9.694-3.612zm7.275 2.702 2.923 2.407 2.543-3.087-2.923-2.407zm2.923 2.408c3.396 2.795 8.094 3.005 11.693.802l-2.087-3.411c-2.189 1.339-5.024 1.2-7.064-.48zm9.36.625 11.608 9.79 2.579-3.058-11.608-9.789zm11.606 9.788a5.21 5.21 0 0 0 6.988-.238l-2.782-2.873a1.21 1.21 0 0 1-1.623.057zm6.989-.238 16.62-16.103-2.783-2.873-16.62 16.103zm16.62-16.103a5.21 5.21 0 0 0 .463-6.975l-3.138 2.48c.386.489.34 1.189-.107 1.622zm.463-6.975-9.418-11.913-3.138 2.48 9.418 11.913zm-9.315-9.576c2.314-3.527 2.253-8.228-.433-11.711l-3.168 2.442a6.1 6.1 0 0 1 .257 7.075zm-.433-11.712-2.315-2.999-3.166 2.444 2.314 2.999zm-2.315-2.999c-1.59-2.061-2.473-4.665-2.47-7.325l-4-.005c-.004 3.533 1.165 7.001 3.303 9.773zm-2.47-7.325c.015-10.322-3.924-20.089-11.09-27.487l-2.873 2.783c6.44 6.648 9.976 15.414 9.963 24.698zm-11.09-27.487a39.53 39.53 0 0 0-29.908-11.976l.157 3.997a35.54 35.54 0 0 1 26.878 10.762zm-29.907-11.976c-11.359.444-21.653 5.561-28.955 14.383l3.081 2.55c6.584-7.954 15.819-12.537 26.03-12.936zm38.858 66.128-21.252-26.576-3.124 2.498 21.252 26.576zm-21.172-26.47a5.2 5.2 0 0 0-3.78-2.211l-.382 3.982c.356.034.674.221.879.514zm-3.775-2.21a5.21 5.21 0 0 0-4.132 1.438l2.778 2.878c.258-.249.608-.37.963-.335zm-4.132 1.438-8.656 8.358 2.779 2.877 8.655-8.357zm-8.655 8.358a5.22 5.22 0 0 0-1.585 4.074l3.993-.242a1.22 1.22 0 0 1 .37-.955zm-1.585 4.076a5.21 5.21 0 0 0 2.077 3.852l2.4-3.2a1.21 1.21 0 0 1-.484-.898zm1.995 3.787 26.37 22.037 2.565-3.069-26.37-22.038zm-57.32-55.073c2.749 1.294 5.492 2.596 8.238 3.899q4.117 1.956 8.25 3.905l1.703-3.619a2940 2940 0 0 1-8.238-3.9c-2.745-1.302-5.494-2.607-8.25-3.904zm38.49-25.3q.585 4.369 1.16 8.742.577 4.372 1.162 8.749l3.965-.531q-.584-4.37-1.16-8.742-.577-4.373-1.162-8.75zm-21.537 7.113c1.358 2.607 2.71 5.215 4.064 7.826q2.028 3.916 4.067 7.834l3.548-1.848a4579 4579 0 0 1-4.064-7.827q-2.029-3.916-4.067-7.833zm-23.995 38.935 9.197.821 9.197.822.356-3.985-9.197-.821-9.198-.822zm87.283 62.956 23.699-23.7-2.828-2.828-23.7 23.699zm747.533 215.353-1.541-1.275zm-.585 44.546 1.575-1.233h-.001zm27.018 13.72-.061 1.999zm8.077 3.005 1.272-1.544-.001-.001zm2.782 2.291-1.272 1.544h.001zm8.927.61 1.289-1.529-1.103-.93-1.23.753zm11.049 9.318 1.291-1.527-.001-.001zm4.099-.14 1.391 1.437zm15.82-15.328-1.391-1.437v.001zm.272-4.092 1.569-1.24zm-8.965-11.339-1.672-1.097-.791 1.206.894 1.131zm-.328-8.941 1.584-1.221-.001-.001zm-2.203-2.855-1.584 1.222h.001zm-2.748-8.138-2-.003zm-10.02-24.837 1.437-1.391v-.001zm-27.026-10.822.078 1.999zm15.198 36.935-1.642 1.142.038.055.042.052zm-2.217-1.297-.196 1.99.005.001zm-2.425.844-1.388-1.439h-.001zm-8.238 7.955 1.389 1.439zm-.931 2.394-1.996.121v.002zm1.219 2.26 1.283-1.534-.04-.034-.043-.032zm-54.118-54.493a2 2 0 0 0-1.704 3.619zm13.99 11.047a2 2 0 1 0 1.704-3.619zm24.854-32.116a2.001 2.001 0 0 0-3.965.531zm-1.754 17.181a1.999 1.999 0 1 0 3.964-.532zm-19.154-11.695a2 2 0 1 0-3.547 1.848zm4.192 16.754a2 2 0 1 0 3.548-1.848zm-30.147 18.222a2 2 0 1 0-.356 3.984zm17.153 5.548a2 2 0 0 0 .356-3.984zm14.668-7.812c-11.16 13.486-11.42 33.264-.619 47.054l3.149-2.466c-9.643-12.312-9.409-30.002.552-42.038zm-.619 47.053c6.931 8.858 17.334 14.142 28.532 14.487l.123-3.998c-10.006-.309-19.301-5.026-25.505-12.954zm28.532 14.487c2.532.077 4.972.991 6.868 2.55l2.541-3.089c-2.594-2.133-5.888-3.355-9.286-3.459zm6.867 2.549 2.781 2.292 2.543-3.088-2.781-2.291zm2.782 2.292c3.265 2.688 7.782 2.889 11.242.772l-2.088-3.412a5.71 5.71 0 0 1-6.612-.448zm8.909.595 11.049 9.318 2.579-3.057-11.05-9.319zm11.047 9.317a5.055 5.055 0 0 0 6.781-.231l-2.783-2.874a1.054 1.054 0 0 1-1.416.05zm6.781-.231 15.821-15.328-2.783-2.873-15.821 15.328zm15.821-15.328a5.057 5.057 0 0 0 .449-6.769l-3.138 2.48a1.057 1.057 0 0 1-.094 1.415zm.449-6.769-8.965-11.34-3.138 2.481 8.965 11.34zm-8.861-9.002c2.223-3.391 2.165-7.91-.417-11.259l-3.168 2.442a5.71 5.71 0 0 1 .24 6.623zm-.418-11.26-2.203-2.855-3.166 2.444 2.203 2.855zm-2.202-2.854c-1.501-1.945-2.335-4.403-2.332-6.915l-4-.005c-.004 3.385 1.115 6.706 3.164 9.363zm-2.332-6.914c.014-9.851-3.744-19.172-10.583-26.231l-2.873 2.783c6.112 6.309 9.469 14.629 9.456 23.442zm-10.583-26.232a37.73 37.73 0 0 0-28.541-11.428l.156 3.997a33.72 33.72 0 0 1 25.512 10.215zm-28.541-11.428c-10.839.424-20.664 5.307-27.632 13.725l3.082 2.551c6.25-7.551 15.014-11.9 24.706-12.279zm37.067 62.981-20.229-25.297-3.124 2.498 20.228 25.297zm-20.149-25.19a5.05 5.05 0 0 0-3.668-2.146l-.382 3.982c.31.03.588.192.766.448zm-3.663-2.145a5.05 5.05 0 0 0-4.009 1.395l2.777 2.878a1.06 1.06 0 0 1 .84-.293zm-4.01 1.395-8.239 7.955 2.779 2.878 8.239-7.955zm-8.239 7.955a5.06 5.06 0 0 0-1.537 3.954l3.993-.243a1.06 1.06 0 0 1 .323-.833zm-1.537 3.956a5.06 5.06 0 0 0 2.015 3.737l2.4-3.2a1.06 1.06 0 0 1-.422-.784zm1.933 3.672 25.101 20.977 2.565-3.069-25.101-20.977zm-54.54-52.409q3.922 1.85 7.841 3.712t7.853 3.716l1.704-3.619c-2.617-1.232-5.228-2.471-7.842-3.711s-5.229-2.482-7.852-3.717zm36.583-24.157q.556 4.159 1.105 8.321.548 4.163 1.106 8.329l3.964-.532q-.556-4.158-1.105-8.321t-1.105-8.328zm-20.49 6.803q1.936 3.722 3.868 7.449 1.931 3.728 3.871 7.457l3.548-1.848a3484 3484 0 0 1-3.868-7.45q-1.93-3.727-3.872-7.456zm-22.764 37.112 8.754.782 8.755.782.356-3.984-8.755-.782-8.754-.782zm83.159 59.898 22.558-22.558-2.828-2.829-22.559 22.559zM1367.82 41.02l.52-1.932-.52 1.931Zm-34.49 15.217 1.77.92zm-1.06 25.624-1.85.775zm.52 7.275 1.94.515v-.002zm-.78 2.947-1.93-.515zm2.67 7.087 1.93.537.38-1.39-1.19-.806zm-3.29 11.783 1.93.54v-.003zm1.55 3.106-.73 1.862zm17.37 6.787.72-1.862v-.001zm3.24-1.23 1.78.912zm5.58-10.889.3-1.977-1.43-.219-.65 1.284zm6.76-3.398 1.77.933zm1.43-2.7-1.77-.933v.001zm5.3-4.978-.83-1.82zm15.59-16.449 1.86.728zm-1.17-24.611-1.79.901zm-23.09 24.69-1.72-1.018-.04.057-.03.06zm.22-2.162-1.89.649v.004zm-1.5-1.57.73-1.861zm-9.03-3.544-.73 1.861zm-2.17.126-.94-1.766v.001zm-1.31 1.733 1.93.529.01-.05.02-.052zm23.22-60.824a1.99 1.99 0 0 0-1.97-2.023 2.007 2.007 0 0 0-2.03 1.977zm-4.19 14.648a1.99 1.99 0 0 0 1.97 2.023 1.99 1.99 0 0 0 2.02-1.977zm33.93 8.1a1.995 1.995 0 0 0 .63-2.758 2 2 0 0 0-2.76-.627zm-14.17 4.173a2.013 2.013 0 0 0-.63 2.758 2.003 2.003 0 0 0 2.76.627zm2.67-18.41c.68-.87.53-2.127-.34-2.806a2.003 2.003 0 0 0-2.81.348l3.15 2.459Zm-11.9 8.743a2 2 0 0 0 .34 2.807c.87.679 2.13.523 2.81-.348zm-24.1-16.712a2.006 2.006 0 0 0-2.56-1.22 2.01 2.01 0 0 0-1.22 2.552zm1.18 15.361a2 2 0 1 0 3.77-1.332zm11.54 8.145c-14.44-3.886-29.91 2.935-36.79 16.23l3.55 1.838c6.02-11.625 19.57-17.602 32.2-14.205zm-36.79 16.228c-4.42 8.532-4.84 18.494-1.13 27.32l3.69-1.55c-3.25-7.726-2.89-16.445.99-23.929l-3.55-1.84Zm-1.13 27.32c.81 1.916.96 4.045.44 5.986l3.87 1.027c.75-2.813.52-5.848-.62-8.563zm.44 5.985-.78 2.947 3.86 1.03.79-2.947zm-.78 2.948c-.96 3.589.53 7.27 3.48 9.259l2.24-3.317a4.53 4.53 0 0 1-1.86-4.913l-3.86-1.03Zm2.67 7.063-3.28 11.784 3.85 1.074 3.29-11.783zm-3.28 11.781a4.58 4.58 0 0 0 2.74 5.508l1.46-3.725a.59.59 0 0 1-.35-.703zm2.74 5.508 17.37 6.788 1.45-3.726-17.36-6.787zm17.37 6.788a4.583 4.583 0 0 0 5.75-2.181l-3.56-1.824c-.14.27-.45.39-.74.28zm5.75-2.181 5.58-10.89-3.56-1.823-5.58 10.889zm3.49-9.824c3.52.538 7.11-1.157 8.84-4.442l-3.53-1.866a4.54 4.54 0 0 1-4.7 2.354zm8.84-4.442 1.43-2.701-3.54-1.864-1.42 2.7zm1.43-2.7c.93-1.778 2.48-3.237 4.36-4.09l-1.66-3.64c-2.67 1.214-4.89 3.292-6.24 5.864zm4.35-4.09c7.66-3.487 13.58-9.72 16.63-17.541l-3.72-1.457c-2.68 6.85-7.85 12.3-14.56 15.357zm16.63-17.542a32.24 32.24 0 0 0-1.25-26.24l-3.57 1.803a28.26 28.26 0 0 1 1.1 22.981zm-1.25-26.24c-4.18-8.274-11.46-14.176-20.48-16.602l-1.04 3.863c7.93 2.133 14.29 7.293 17.95 14.541l3.57-1.803Zm-35.44 50.963 12.35-24.47-3.57-1.803-12.35 24.469zm12.29-24.353c.69-1.16.83-2.56.39-3.835l-3.78 1.307c.05.164.04.341-.05.491zm.39-3.83a4.6 4.6 0 0 0-2.66-2.782l-1.47 3.722a.59.59 0 0 1 .35.358l3.78-1.299Zm-2.66-2.782-9.03-3.545-1.46 3.723 9.02 3.544zm-9.03-3.545a4.6 4.6 0 0 0-3.84.222l1.88 3.531a.6.6 0 0 1 .5-.03zm-3.84.223a4.59 4.59 0 0 0-2.32 3.072l3.91.853a.55.55 0 0 1 .3-.396zm-2.3 2.97-7.32 26.701 3.86 1.057 7.32-26.701-3.86-1.058Zm21.15-60.342c-.02 2.447-.06 4.892-.1 7.341-.03 2.448-.07 4.899-.09 7.353l3.99.046c.03-2.447.07-4.892.1-7.341.04-2.448.08-4.899.1-7.353zm31.61 19.409c-2 1.261-4.01 2.519-6.02 3.777-2 1.258-4.01 2.517-6.02 3.78l2.13 3.386c2.01-1.261 4.01-2.519 6.02-3.777s4.01-2.517 6.02-3.78zm-12.52-13.31-4.38 5.598c-1.46 1.865-2.92 3.732-4.37 5.603l3.15 2.459c1.46-1.868 2.91-3.732 4.37-5.598s2.93-3.732 4.38-5.603zm-36.63-4.179c.83 2.338 1.66 4.676 2.48 7.015.83 2.338 1.65 4.676 2.48 7.014l3.77-1.332c-.82-2.338-1.65-4.676-2.48-7.015-.82-2.338-1.65-4.676-2.47-7.014zm-16.67 85.27 25.3 9.431 1.39-3.748-25.3-9.431zM116.836 33.014l-3.327.907-3.63-13.305-3.948 2.749-.785-2.865 6.794-4.809.138-.072zm18.167-12.053c.295 1.132.473 2.15.417 3.056-.033.95-.207 1.742-.544 2.443a5 5 0 0 1-1.412 1.784c-.618.496-1.379.832-2.233 1.1a6 6 0 0 1-2.455.222 5.3 5.3 0 0 1-2.123-.827c-.633-.431-1.199-1.072-1.721-1.853s-.907-1.75-1.202-2.881l-1.152-4.135c-.295-1.132-.473-2.15-.416-3.055.032-.952.206-1.743.543-2.444s.793-1.287 1.412-1.784c.618-.496 1.379-.832 2.233-1.1.878-.221 1.712-.303 2.479-.176a5.3 5.3 0 0 1 2.123.827c.633.431 1.199 1.072 1.721 1.853s.907 1.75 1.202 2.881l1.152 4.135zm-8.315.75 3.687-4.717c-.365-1.154-.795-1.983-1.266-2.44q-.81-.718-1.954-.388c-.762.22-1.289.668-1.51 1.368-.222.699-.184 1.672.159 2.896l.86 3.235zm4.277-2.453-3.687 4.717c.365 1.154.817 1.913 1.334 2.346.516.433 1.168.563 1.93.342s1.289-.668 1.51-1.367c.222-.7.16-1.719-.183-2.943l-.858-3.119zm22.254 3.822-3.326.907-3.631-13.306-3.948 2.75-.785-2.865 6.794-4.81.138-.07zm5.643 20.674-3.327.907-3.63-13.305-3.949 2.749-.785-2.865 6.794-4.809.138-.072zm-36.398 2.814c.295 1.132.473 2.15.417 3.055-.032.952-.206 1.743-.544 2.444a5 5 0 0 1-1.411 1.783c-.619.496-1.38.832-2.234 1.1-.878.222-1.712.304-2.455.222a5.3 5.3 0 0 1-2.123-.826c-.633-.431-1.199-1.072-1.721-1.853-.521-.781-.907-1.75-1.202-2.882l-1.152-4.134c-.295-1.133-.472-2.15-.416-3.056.032-.951.206-1.742.543-2.443a5 5 0 0 1 1.412-1.784c.619-.496 1.379-.832 2.233-1.1a5.4 5.4 0 0 1 2.479-.176 5.3 5.3 0 0 1 2.123.827c.633.43 1.199 1.072 1.721 1.853s.907 1.749 1.203 2.881l1.151 4.135zm-8.361.773 3.687-4.716c-.365-1.155-.795-1.983-1.265-2.44q-.811-.72-1.954-.389c-.763.22-1.289.669-1.511 1.368s-.184 1.673.159 2.897l.86 3.234zm4.277-2.452-3.687 4.717c.365 1.154.817 1.913 1.334 2.346s1.168.562 1.93.342 1.289-.669 1.51-1.368.16-1.718-.182-2.943l-.859-3.118zm22.3 3.797-3.326.908-3.63-13.306-3.949 2.75-.785-2.865 6.794-4.81.138-.071zm526.156 391.22-7.054-1.532 6.124-28.218-9.99 1.287 1.312-6.078 17.267-2.361h.325zm45.391-4.815c-.547 2.388-1.202 4.45-2.181 6.077-.98 1.735-2.068 3.036-3.373 4.012a10.5 10.5 0 0 1-4.346 1.947c-1.629.323-3.365.212-5.211-.117-1.845-.328-3.472-1.091-4.774-1.962-1.301-.979-2.385-2.175-3.143-3.587-.757-1.413-1.189-3.151-1.403-5.106-.214-1.954.007-4.125.553-6.513l1.86-8.791c.546-2.388 1.201-4.45 2.181-6.077.98-1.735 2.068-3.036 3.372-4.012a10.5 10.5 0 0 1 4.346-1.947c1.629-.323 3.366-.212 5.211.117 1.845.437 3.473 1.091 4.774 2.07s2.385 2.175 3.143 3.588 1.189 3.151 1.403 5.105-.006 4.126-.553 6.514l-1.86 8.791zm-16.167-6.648 11.408-5.194c.438-2.496.442-4.45.009-5.754q-.81-2.118-3.253-2.611c-1.628-.328-3.04-.004-4.127 1.08-1.088 1.084-1.959 2.928-2.506 5.533l-1.531 6.837zm10.315-.418-11.408 5.193c-.438 2.497-.333 4.343.208 5.646.541 1.304 1.625 2.174 3.253 2.502 1.628.329 3.04.005 4.128-1.079 1.087-1.084 1.959-3.037 2.506-5.641l1.421-6.621zm37.63 28.615-7.055-1.532 6.125-28.218-9.991 1.287 1.313-6.078 17.266-2.361h.326zm-9.514 43.847-7.054-1.531 6.124-28.219-9.99 1.287 1.312-6.078 17.267-2.361h.325zm-70.309-29.97c-.547 2.388-1.201 4.45-2.181 6.077-.98 1.735-2.068 3.037-3.372 4.012a10.5 10.5 0 0 1-4.346 1.947c-1.629.323-3.366.212-5.211-.117-1.845-.437-3.473-1.091-4.774-1.962-1.302-.979-2.385-2.175-3.143-3.587s-1.19-3.151-1.404-5.105.007-4.126.554-6.514l1.859-8.791c.547-2.388 1.202-4.45 2.181-6.077.98-1.735 2.068-3.036 3.372-4.012a10.5 10.5 0 0 1 4.346-1.947c1.629-.323 3.366-.212 5.211.117a11.2 11.2 0 0 1 4.774 2.07c1.302.979 2.385 2.175 3.143 3.588s1.19 3.15 1.404 5.105-.007 4.126-.554 6.513l-1.859 8.792zm-16.275-6.648 11.408-5.194c.438-2.496.441-4.45.009-5.754q-.811-2.119-3.253-2.611c-1.628-.328-3.04-.005-4.127 1.079-1.088 1.084-1.959 2.929-2.506 5.534l-1.531 6.837zm10.315-.418-11.409 5.193c-.438 2.497-.332 4.342.209 5.646s1.625 2.174 3.253 2.502c1.628.329 3.04.005 4.127-1.079 1.088-1.084 1.959-3.037 2.506-5.642l1.422-6.62zm37.738 28.615-7.055-1.532 6.125-28.218-9.99 1.287 1.312-6.078 17.267-2.362.325.001z"/><circle cx="63.176" cy="47.294" r="7.824" fill="#fff"/><circle cx="63.176" cy="23.823" r="5.824" stroke="#fff" stroke-width="4"/><circle cx="63.176" cy="70.765" r="5.824" stroke="#fff" stroke-width="4"/><circle cx="39.706" cy="47.294" r="7.824" fill="#fff"/><circle cx="16.235" cy="47.294" r="5.824" stroke="#fff" stroke-width="4"/><circle cx="39.706" cy="94.235" r="7.824" fill="#fff"/><circle cx="39.706" cy="141.176" r="7.824" fill="#fff"/><circle cx="39.706" cy="70.765" r="7.824" fill="#fff"/><circle cx="16.235" cy="94.235" r="7.824" fill="#fff"/><circle cx="16.235" cy="117.706" r="5.824" stroke="#fff" stroke-width="4"/><circle cx="655.706" cy="132.294" r="7.824" fill="#fff"/><circle cx="655.706" cy="108.824" r="5.824" stroke="#fff" stroke-width="4"/><circle cx="655.706" cy="155.765" r="5.824" stroke="#fff" stroke-width="4"/><circle cx="632.235" cy="132.294" r="7.824" fill="#fff"/><circle cx="608.765" cy="132.294" r="5.824" stroke="#fff" stroke-width="4"/><circle cx="632.235" cy="179.235" r="7.824" fill="#fff"/><circle cx="632.235" cy="226.176" r="7.824" fill="#fff"/><circle cx="632.235" cy="155.765" r="7.824" fill="#fff"/><circle cx="608.765" cy="179.235" r="7.824" fill="#fff"/><circle cx="608.765" cy="202.706" r="5.824" stroke="#fff" stroke-width="4"/><circle cx="561.824" cy="179.235" r="7.824" fill="#fff"/><circle cx="1132.71" cy="314.294" r="7.824" fill="#fff"/><circle cx="1132.71" cy="290.824" r="5.824" stroke="#fff" stroke-width="4"/><circle cx="1132.71" cy="337.765" r="5.824" stroke="#fff" stroke-width="4"/><circle cx="1109.24" cy="314.294" r="7.824" fill="#fff"/><circle cx="1085.76" cy="314.294" r="5.824" stroke="#fff" stroke-width="4"/><circle cx="1109.24" cy="361.235" r="7.824" fill="#fff"/><circle cx="1109.24" cy="408.176" r="7.824" fill="#fff"/><circle cx="1109.24" cy="337.765" r="7.824" fill="#fff"/><circle cx="1085.76" cy="361.235" r="7.824" fill="#fff"/><circle cx="1085.76" cy="384.706" r="5.824" stroke="#fff" stroke-width="4"/><circle cx="1038.82" cy="361.235" r="7.824" fill="#fff"/><path stroke="#fff" stroke-width="4" d="m384.427 335.628-20.054 22.503c-1.317 1.455-.503 3.709 1.384 4.105l10.998 2.026c1.565.317 2.505 2.054 1.801 3.523l-6.401 13.48c-.72 1.533 1.187 2.961 2.44 1.764l23.183-21.594c1.414-1.294.907-3.678-1.013-4.22l-11.906-3.344c-1.355-.334-2.101-1.749-1.703-3.088l3.935-13.745c.397-1.613-1.524-2.703-2.648-1.474zm515.744-147.125-50.49 29.862c-3.301 1.919-3.118 6.568.151 8.411l19.228 10.215c2.717 1.507 3.44 5.276 1.268 7.581l-19.826 21.186c-2.24 2.415.459 6.178 3.49 4.7l55.765-26.341c3.388-1.565 3.849-6.275.604-8.406l-20.134-13.188c-2.319-1.414-2.871-4.473-1.342-6.718l15.402-23.127c1.688-2.752-1.238-5.898-4.049-4.285z"/><path fill="#fff" stroke="#fff" stroke-linejoin="round" stroke-width="3" d="M136.179 509.108c-.091-.862.883-1.424 1.584-.914l9.783 7.128c.287.21.664.251.99.108l10.974-4.808c.786-.344 1.611.395 1.356 1.213l-3.6 11.542a1 1 0 0 0 .207.961l8.074 9.1c.573.646.113 1.666-.75 1.664l-11.991-.027a1 1 0 0 0-.869.502l-5.972 10.397c-.43.749-1.543.637-1.816-.182l-3.843-11.542a1 1 0 0 0-.73-.66l-11.795-2.653c-.836-.188-1.064-1.273-.373-1.781l9.651-7.1a1 1 0 0 0 .402-.911z"/><path stroke="#fff" stroke-linejoin="round" stroke-width="4" d="M1142.12 118.354c-.11-1.053 1.07-1.74 1.92-1.117l11.85 8.707c.35.256.8.306 1.2.132l13.29-5.874c.95-.42 1.95.483 1.64 1.483l-4.36 14.098c-.13.409-.03.854.25 1.175l9.78 11.115c.7.789.14 2.035-.91 2.033l-14.52-.033a1.19 1.19 0 0 0-1.05.613l-7.24 12.701c-.52.914-1.87.778-2.2-.223l-4.65-14.099a1.22 1.22 0 0 0-.89-.806l-14.28-3.241c-1.02-.23-1.29-1.555-.46-2.176l11.69-8.672c.35-.257.54-.681.49-1.113z"/><path fill="#fff" stroke="#fff" stroke-linejoin="round" stroke-width="3" d="M360.807 513.951c-.078-.74.751-1.222 1.347-.784l8.32 6.113c.245.18.565.215.842.093l9.334-4.124c.668-.296 1.37.338 1.153 1.041l-3.062 9.898a.86.86 0 0 0 .176.825l6.867 7.804c.487.554.096 1.429-.638 1.427l-10.198-.023a.85.85 0 0 0-.739.431l-5.079 8.917a.848.848 0 0 1-1.545-.156l-3.269-9.9a.85.85 0 0 0-.62-.565l-10.032-2.276c-.711-.161-.904-1.092-.317-1.527l8.208-6.089a.86.86 0 0 0 .342-.782zm312.348 37.54c.226-.508.942-.51 1.164-.004l3.099 7.061c.091.208.285.35.51.374l7.577.818c.542.059.76.731.357 1.104l-5.677 5.26a.65.65 0 0 0-.194.599l1.527 7.612c.109.541-.471.96-.945.685l-6.588-3.823a.63.63 0 0 0-.639.002l-6.615 3.872a.634.634 0 0 1-.941-.678l1.583-7.624a.64.64 0 0 0-.19-.598l-5.639-5.218a.642.642 0 0 1 .365-1.106l7.583-.874a.64.64 0 0 0 .513-.378zM1267.91 373.58c.2-.172.51-.023.5.241l-.14 3.685c-.01.108.05.21.14.267l3.09 1.934c.22.138.17.473-.08.549l-3.54 1.078a.32.32 0 0 0-.21.217l-.93 3.594a.307.307 0 0 1-.55.097l-2.04-3.019a.29.29 0 0 0-.27-.133l-3.66.285c-.26.021-.42-.278-.26-.488l2.27-2.95a.32.32 0 0 0 .05-.296l-1.34-3.422c-.1-.243.14-.487.39-.4l3.44 1.207c.1.036.22.014.3-.056zM757.342 123.221c-.059-.553.56-.913 1.005-.586l6.215 4.566a.63.63 0 0 0 .629.069l6.971-3.08c.499-.22 1.023.253.861.778l-2.287 7.393a.65.65 0 0 0 .131.616l5.13 5.829c.364.414.071 1.067-.477 1.066l-7.617-.018a.64.64 0 0 0-.552.322l-3.793 6.66a.634.634 0 0 1-1.154-.116l-2.441-7.394a.64.64 0 0 0-.464-.423l-7.492-1.699a.643.643 0 0 1-.237-1.141l6.131-4.548a.65.65 0 0 0 .255-.584z"/><path stroke="#fff" stroke-linejoin="round" stroke-width="4" d="M284.994 356.475c.443.727 1.636.727 2.079 0 2.544-4.183 9.803-13.766 22.243-12.33 15.843 1.83 22.869 18.718 18.323 33.635-4.34 13.952-36.354 38.294-41.035 41.796a.92.92 0 0 1-1.14-.002c-4.677-3.516-36.696-27.971-41.036-41.794-4.684-15.058 2.342-31.946 18.323-33.635 12.44-1.436 19.699 8.147 22.243 12.33Zm999.996-388c.45.727 1.64.727 2.08 0 2.55-4.183 9.81-13.766 22.25-12.33 15.84 1.83 22.87 18.718 18.32 33.635-4.34 13.952-36.36 38.294-41.04 41.796a.92.92 0 0 1-1.14-.002c-4.67-3.516-36.69-27.971-41.03-41.794-4.69-15.058 2.34-31.946 18.32-33.635 12.44-1.436 19.7 8.147 22.24 12.33ZM594.348 554.633c.759.384 1.811-.223 1.858-1.073.203-3.673 1.562-11.07 8.954-14.271 10.035-4.345 19.996 3.274 22.41 13.69 2.166 9.594-8.073 34.279-9.942 38.661a.96.96 0 0 1-1.013.584c-4.732-.585-31.27-4.122-38.453-10.719-7.943-7.336-9.561-19.772-.651-26.253 6.468-4.801 13.554-2.28 16.837-.619Zm256.267-443.548c.036.851 1.083 1.455 1.838 1.062 3.608-1.882 11.881-5.025 19.417.569 9.99 7.416 8.15 21.565-.74 29.87-8.28 7.646-38.801 11.602-43.862 12.211a.94.94 0 0 1-.996-.576c-1.993-4.697-13.789-33.183-11.357-44.091 2.709-12 14.042-20.668 25.497-15.576 8.613 3.73 10.027 12.465 10.203 16.531Z"/><path fill="#fff" d="M1127.32 219.165c.2.828 1.34 1.265 2.04.778 2.61-1.82 7.93-4.517 13.69-1.533 8.12 4.207 8.45 14.687 2.97 21.755-5.02 6.411-26.07 12.758-30.19 13.952a.96.96 0 0 1-1.09-.416c-2.28-3.637-13.78-22.418-13.31-30.48.56-9.024 7.76-16.642 16.67-14.293 6.29 1.593 8.48 7.145 9.22 10.237"/><path stroke="#fff" stroke-linejoin="round" stroke-width="4" d="m178.69 63.93-.017.003c-10.18 1.45-18.21 9.85-19.507 20.06l-.002.019c-1.685 14.386 9.852 26.739 24.052 25.953 12.451-.662 21.715-11.596 21.715-23.923V43.85c0-.003 0-.004.006-.014a.4.4 0 0 1 .13-.121.85.85 0 0 1 .628-.114 14.88 14.88 0 0 0 9.262-.754c2.57-1.008 2.62-4.338.657-5.753l-.025-.018-16.002-11.165a3 3 0 0 0-.389-.305l-1.084 1.681 1.084-1.68c-2.559-1.652-5.745.233-5.745 3.165v37.553l-.004.008a.6.6 0 0 1-.681.13c-4.129-2.23-8.972-3.214-14.078-2.533Z"/><path fill="#fff" stroke="#fff" stroke-linejoin="round" stroke-width="2" d="m910.689 441.134-.008-.001c-7.047-.984-14.008 3.069-16.828 9.623l-.004.009c-3.879 9.265 1.443 19.696 11.043 21.889 8.397 1.939 16.673-3.553 19.041-11.786l8.293-28.833c.04-.142.159-.28.403-.354.253-.077.552-.049.783.082a10.15 10.15 0 0 0 6.224 1.252c1.589-.146 2.174-2 1.293-3.121l-.01-.013-8.762-10.8a1.6 1.6 0 0 0-.175-.248c-1.196-1.37-3.337-.822-3.825.873l-7.38 25.661c-.045.158-.183.303-.452.354a.85.85 0 0 1-.746-.205c-2.321-2.274-5.356-3.857-8.89-4.382Zm21.45-22.075Z"/><path stroke="#fff" stroke-linejoin="round" stroke-width="4" d="m442.196 360.606-.026.014-.024.014c-2.107 1.201-3.336 3.669-2.659 6.209l10.81 40.524c.036.135.023.332-.199.573a1.3 1.3 0 0 1-.938.412 19.9 19.9 0 0 0-6.506 1.002l-.039.013c-8.417 2.94-13.702 11.685-12.426 20.499l.003.018c1.79 11.625 13.466 18.735 24.553 15.21l.014-.004c9.721-3.169 14.834-13.685 12.255-23.351l-11-41.238a.45.45 0 0 1 .227-.511l52.164-27.579a.464.464 0 0 1 .667.283l5.572 20.887c.036.135.023.333-.199.574a1.3 1.3 0 0 1-.939.411 19.9 19.9 0 0 0-6.505 1.002l-.039.014c-8.411 2.937-13.702 11.677-12.453 20.397l.001.001c1.683 11.689 13.488 18.748 24.555 15.23l.014-.005c9.722-3.168 14.834-13.684 12.256-23.351l-15.68-58.781c-.92-3.447-4.746-5.076-7.914-3.422l-.016.008z"/><path fill="#fff" stroke="#fff" stroke-linejoin="round" stroke-width="2" d="m1386.57 260.769-.02-.002c-1.61-.095-3.17.834-3.71 2.471l-9.86 29.915c-.09.292-.34.515-.71.611-.38.097-.82.032-1.16-.195a14.3 14.3 0 0 0-4.34-1.964l-.02-.005c-6.26-1.538-12.92 1.685-15.63 7.532l-.01.008c-3.52 7.76.73 16.688 8.84 18.928l.01.002c7.12 1.911 14.39-2.443 16.66-9.343l10.03-30.442a.83.83 0 0 1 .87-.573l44.04 3.998c.54.049.9.59.73 1.103l-5.08 15.419c-.1.292-.34.516-.72.611a1.44 1.44 0 0 1-1.15-.194 14.4 14.4 0 0 0-4.35-1.964l-.02-.005c-6.25-1.538-12.91 1.681-15.6 7.457v.001c-3.61 7.749.73 16.699 8.83 18.937l.01.002c7.12 1.911 14.39-2.443 16.66-9.344l14.29-43.392c.74-2.23-.78-4.512-3.13-4.739h-.01z"/><path fill="#fff" d="M819.414 20.09a6.5 6.5 0 0 1-1.008 2.112c-.441.63-.88 1.153-1.42 1.461-.543.415-1.081.616-1.723.708-.642.093-1.28-.029-2.024-.152s-1.056-.45-1.475-.78-.624-.76-.931-1.301l-1.717 5.189-2.86-.918 5.144-15.247 2.646.913-.239 1.168c.433-.31.971-.511 1.504-.5.534.012 1.067.024 1.702.252s1.267.562 1.684.998q.625.654.924 1.621a6.2 6.2 0 0 1 .274 2.034c-.016.746-.249 1.594-.479 2.336l-.005.213zm-2.856-1.13c.117-.425.235-.956.352-1.38s.019-.853.026-1.173-.199-.644-.512-.971c-.312-.327-.523-.439-.947-.555s-.955-.235-1.28-.029c-.426-.01-.754.303-.974.618l-1.492 4.661c-.009.427.197.751.509 1.078.313.327.628.548 1.157.773.528.225.744.124 1.066.024s.644-.199.971-.511c.328-.313.546-.522.769-.943.222-.422.445-.844.562-1.268l.004-.213zm15.284-1.15c.424.116.846.339 1.163.453s.633.334.844.445l-1.34 2.638a5 5 0 0 0-1.054-.558c-.318-.114-.739-.336-1.057-.45-.848-.233-1.485-.354-2.023-.152a4.5 4.5 0 0 0-1.515.926l-2.177 6.672-2.86-.918 3.662-11.013 2.646.913-.467 1.803a4.3 4.3 0 0 1 2.154-.911c.752-.197 1.496-.074 2.24.05zm5.284 2.039 6.034 2.056-2.969 8.681 2.964 1.027-.799 2.33-9.001-2.977.799-2.33 3.177 1.033 2.173-6.46-3.178-1.031.8-2.33Zm3.882-1.833c.004-.213.222-.422.331-.526.112-.211.328-.313.543-.415.213.005.429-.097.642-.092l.747.017c.531.119.843.446 1.047.877s.196.751.078 1.282c-.119.53-.444.737-.768.943-.432.203-.858.194-1.386-.031-.529-.226-.422-.223-.633-.335-.211-.111-.313-.327-.417-.436.005-.213-.206-.325-.201-.538l.014-.64zm10.521 6.638-.356 1.593c.543-.415 1.19-.72 1.832-.813s1.386.031 2.024.152c.637.122 1.056.451 1.476.78.419.33.729.764.933 1.195q.306.647.284 1.607c-.015.64-.031 1.386-.368 2.125l-2.286 6.777-2.86-.918 2.286-6.777c.116-.424.232-.848.24-1.168s.012-.533-.194-.858-.311-.433-.522-.545c-.21-.111-.526-.332-.845-.339-.531-.119-.955-.235-1.387-.031-.426-.01-.753.303-1.078.509l-2.63 7.836-2.86-.918 3.662-11.013 2.54.91zm16.055 2.389-.915 2.753 4.13 1.373-.688 2.118-4.13-1.373-1.601 4.765c-.116.424-.23.741-.237 1.061s-.012.534.196.752c.102.215.311.433.522.545.211.111.528.225.739.337.211.11.424.116.635.227.211.112.426.01.637.121l.64.015.533.012-.365 2.018-.747-.016-.959-.022c-.32-.007-.64-.014-.955-.235-.32-.007-.638-.12-.955-.235-.635-.227-1.164-.453-1.583-.782-.419-.33-.73-.763-1.04-1.197-.204-.431-.405-.97-.39-1.61.012-.532.028-1.279.365-2.018l1.712-4.976-2.542-.804.688-2.118 2.542.804.916-2.753 2.86.918zm6.801 10.822c.342-.952.681-1.798 1.126-2.642.446-.843.887-1.473 1.328-2.103s.986-1.152 1.531-1.673a8.4 8.4 0 0 1 1.628-1.244c.541-.308 1.081-.615 1.513-.82.537-.2.966-.297 1.393-.288l-.039 1.706c-.431.204-.969.405-1.512.82-.542.414-1.085.829-1.633 1.457-.547.627-1.097 1.362-1.545 2.312-.555.948-1.006 2.004-1.354 3.277l-.008.32c-.455 1.27-.801 2.435-.929 3.393-.131 1.064-.15 1.917-.063 2.772a5.8 5.8 0 0 0 .379 2.142c.201.538.507 1.185.71 1.617l-1.097 1.362c-.313-.327-.626-.654-.936-1.088s-.512-.972-.82-1.512a8.3 8.3 0 0 1-.489-1.931l-.27-2.247c.019-.853.036-1.6.164-2.557.126-.85.361-1.805.702-2.758l.005-.213zm19.685-2.438c-.114.317-.337.74-.451 1.057s-.441.63-.768.942c-.327.313-.545.522-.979.832l-.974.618-1.04-1.197c.434-.31.764-.73 1.095-1.255.332-.526.664-1.052.785-1.69l.574-1.8 2.223.796-.574 1.801zm10.981 19.343-2.86-.918 2.173-6.458-4.237-1.376-2.172 6.459-2.86-.918 4.921-14.825 2.86.917-2.056 6.035 4.236 1.376 2.057-6.035 2.859.918zm8.15 2.958c-.848-.233-1.585-.676-2.213-1.224s-1.042-1.09-1.454-1.74a6.4 6.4 0 0 1-.595-2.04c.017-.746.034-1.492.264-2.234l.01-.427c.445-.843.782-1.582 1.33-2.21.547-.628 1.09-1.042 1.739-1.455a6.4 6.4 0 0 1 2.041-.594c.746.017 1.493.034 2.234.264.742.23 1.479.673 2.002 1.112q.785.657 1.244 1.628c.305.647.398 1.29.381 2.036s-.034 1.493-.373 2.338l-.453 1.164-7.518-2.516-.026 1.172c-.008.32.196.752.405.97.208.218.414.542.727.87s.63.44 1.054.557c.424.116.531.118.848.232.318.114.534.012.853.02.32.007.534.011.858-.195.325-.206.538-.2.756-.41l.914 2.048a2.06 2.06 0 0 1-.971.512c-.323.1-.754.303-1.18.293l-1.387-.03a4.7 4.7 0 0 1-1.592-.357zm2.661-9.222c-.32-.007-.637-.121-.959-.022-.32-.007-.643.093-.861.301-.218.209-.54.308-.761.623s-.438.524-.659.839l4.659 1.598.005-.213c.113-.317.227-.635.125-.85-.101-.216.012-.534-.194-.858-.102-.216-.308-.54-.519-.652-.208-.218-.525-.332-.95-.448zm10.33-4.035 6.141 2.06-4.461 13.341 3.178 1.032-.8 2.329-9.318-3.09.799-2.33 3.281 1.141 3.662-11.013-3.281-1.14zM938.79 48.7l6.141 2.06-4.461 13.342 3.177 1.031-.799 2.33-9.319-3.09.8-2.33 3.281 1.14 3.662-11.012-3.282-1.141zm8.117 13.947c.233-.848.674-1.478 1.115-2.108s.983-1.045 1.633-1.457c.649-.412 1.294-.611 2.04-.594.746.016 1.493.033 2.341.266.849.232 1.479.673 2.106 1.22.522.546.936 1.089 1.242 1.736.305.646.395 1.395.378 2.142s-.033 1.493-.373 2.339l-.004.213c-.339.846-.674 1.478-1.115 2.108s-.983 1.045-1.633 1.457c-.647.306-1.294.611-2.04.595s-1.493-.034-2.341-.267c-.849-.232-1.479-.673-2.109-1.114-.521-.545-.936-1.088-1.241-1.735s-.395-1.396-.379-2.142.036-1.6.373-2.339zm2.855 1.131c-.116.425-.235.955-.351 1.38l-.026 1.172c-.007.32.305.647.511.972s.631.441 1.052.664.851.126 1.173.026.645-.199.972-.511c.325-.206.545-.521.768-.943s.446-.844.562-1.268l.005-.213a2.8 2.8 0 0 0 .348-1.272l.027-1.173c.007-.32-.199-.645-.512-.972-.312-.327-.523-.439-1.052-.664-.528-.225-.85-.126-1.173-.026-.322.1-.644.199-.971.511-.327.313-.545.522-.768.943-.223.422-.444.737-.562 1.268l-.005.213zm11.758 8.479c.005-.213.223-.422.334-.633.112-.21.328-.312.543-.414s.429-.097.645-.2l.746.018c.32.007.422.223.633.334s.313.327.414.543c.102.215.097.429.199.644s-.009.427-.014.64-.223.422-.332.526-.327.313-.543.415-.429.097-.644.199l-.747-.017c-.32-.007-.528-.226-.632-.335-.211-.111-.313-.327-.415-.542s-.097-.43-.199-.645.01-.427.014-.64zm4.226-2.892-2.54-.91 3.1-9.746 2.857 1.024zm16-4.547c-.114.318-.337.74-.45 1.057-.114.317-.441.63-.768.943a8 8 0 0 1-.979.831l-.974.618-1.04-1.197c.433-.31.763-.73 1.095-1.255.329-.42.664-1.052.785-1.69l.574-1.8 2.222.797-.574 1.8zM992.55 77.65c-.342.953-.681 1.8-1.124 2.536-.444.737-.887 1.473-1.434 2.101-.548.628-.987 1.152-1.532 1.673a8.4 8.4 0 0 1-1.628 1.244c-.54.307-1.081.615-1.619.817a10 10 0 0 1-1.395.395l.038-1.706c.431-.204.863-.408 1.405-.822.543-.415 1.086-.83 1.633-1.457a15 15 0 0 0 1.653-2.31c.554-.948 1.005-2.004 1.46-3.274l.007-.32c.456-1.27.802-2.436.93-3.393.131-1.064.153-2.024.063-2.773a5.8 5.8 0 0 0-.379-2.142c-.199-.644-.4-1.182-.713-1.51l1.098-1.362c.313.327.625.654.933 1.195.308.54.512.971.817 1.618.306.647.398 1.29.597 1.934.199.645.18 1.498.269 2.247-.019.853-.036 1.6-.164 2.556-.128.958-.361 1.806-.702 2.758l-.005.214zM124.239 253.516a6.5 6.5 0 0 1-1.008 2.111c-.441.63-.879 1.154-1.419 1.462-.543.414-1.081.615-1.723.708s-1.28-.029-2.024-.153c-.744-.123-1.057-.45-1.476-.78-.419-.329-.623-.761-.931-1.301l-1.717 5.189-2.86-.918 5.144-15.247 2.647.913-.24 1.168c.434-.31.972-.511 1.505-.499s1.066.024 1.701.251c.635.228 1.268.562 1.685.999q.625.654.924 1.621c.198.644.291 1.286.274 2.033s-.249 1.595-.479 2.336l-.005.213zm-2.855-1.131c.116-.424.235-.955.351-1.379s.019-.853.027-1.173c.007-.32-.199-.645-.512-.972s-.524-.439-.948-.555-.955-.235-1.279-.029c-.427-.009-.754.304-.974.619l-1.492 4.66c-.01.427.196.752.509 1.079s.628.547 1.156.772c.529.226.744.124 1.066.024.323-.099.645-.198.972-.511s.545-.521.768-.943.446-.843.562-1.268l.005-.213zm15.283-1.15c.425.116.846.339 1.164.453s.632.334.843.446l-1.339 2.637a5 5 0 0 0-1.055-.557c-.317-.114-.739-.337-1.056-.451-.849-.232-1.486-.353-2.024-.152a4.5 4.5 0 0 0-1.514.926l-2.178 6.672-2.859-.918 3.661-11.013 2.647.913-.467 1.804a4.3 4.3 0 0 1 2.154-.912c.751-.197 1.495-.073 2.239.05zm5.284 2.039 6.035 2.056-2.969 8.682 2.964 1.027-.799 2.329-9.002-2.977.8-2.329 3.177 1.032 2.172-6.459-3.177-1.032zm3.882-1.833c.005-.213.223-.422.332-.526.111-.211.327-.313.543-.414.213.004.429-.097.642-.093l.746.017c.531.119.844.446 1.047.877.204.432.197.751.078 1.282-.118.531-.443.737-.768.943-.431.204-.857.194-1.386-.031s-.422-.223-.633-.334c-.21-.112-.312-.327-.416-.437.004-.213-.207-.324-.202-.537l.015-.64zm10.521 6.639-.355 1.592c.542-.415 1.189-.72 1.832-.812.642-.093 1.386.031 2.023.152s1.057.45 1.476.78c.42.329.73.763.933 1.194q.306.647.284 1.607c-.014.64-.031 1.386-.368 2.125l-2.286 6.777-2.86-.918 2.287-6.776c.116-.424.232-.849.239-1.169.007-.319.012-.533-.194-.857-.206-.325-.31-.434-.521-.546-.211-.111-.526-.331-.846-.339-.531-.118-.955-.234-1.386-.031-.427-.009-.754.303-1.078.509l-2.631 7.836-2.859-.918 3.661-11.013 2.54.911zm16.056 2.388-.916 2.753 4.13 1.373-.688 2.118-4.129-1.373-1.601 4.765c-.116.424-.23.742-.237 1.062-.008.32-.012.533.196.751.102.216.31.434.521.545s.529.225.739.337c.211.111.424.116.635.227.211.112.427.01.638.121l.64.015.533.012-.366 2.019-.746-.017-.96-.022c-.32-.007-.64-.014-.955-.235-.32-.007-.637-.121-.955-.234-.635-.228-1.163-.453-1.582-.783-.42-.329-.73-.763-1.04-1.197-.204-.431-.405-.969-.391-1.609.012-.533.029-1.28.366-2.019l1.712-4.975-2.542-.804.687-2.119 2.543.804.915-2.753 2.86.918zm6.801 10.822c.341-.952.68-1.798 1.126-2.641.446-.844.886-1.474 1.327-2.104s.987-1.152 1.532-1.673a8.4 8.4 0 0 1 1.628-1.243c.54-.308 1.081-.616 1.512-.82.538-.201.967-.298 1.393-.288l-.038 1.706c-.431.203-.969.405-1.512.819-.543.415-1.086.829-1.633 1.457-.548.628-1.098 1.362-1.546 2.312-.554.948-1.005 2.005-1.354 3.277l-.007.32c-.455 1.27-.802 2.436-.93 3.393-.13 1.064-.15 1.917-.062 2.772a5.8 5.8 0 0 0 .378 2.143c.202.538.507 1.185.711 1.616l-1.098 1.362c-.312-.327-.625-.654-.935-1.088-.311-.433-.512-.971-.82-1.512a8.3 8.3 0 0 1-.49-1.931l-.269-2.247c.019-.853.036-1.599.164-2.556.126-.851.361-1.806.702-2.758l.005-.214zm19.684-2.438c-.114.318-.336.739-.45 1.057s-.441.63-.768.943-.545.521-.979.831l-.974.618-1.04-1.196c.434-.311.763-.73 1.095-1.256s.664-1.052.785-1.689l.574-1.801 2.222.797-.574 1.8zm10.982 19.344-2.86-.918 2.172-6.459-4.236-1.376-2.173 6.459-2.859-.918 4.921-14.825 2.86.918-2.057 6.035 4.237 1.375 2.056-6.035 2.86.918zm8.149 2.957c-.848-.232-1.585-.676-2.212-1.223-.628-.548-1.043-1.091-1.455-1.74a6.5 6.5 0 0 1-.594-2.04c.017-.747.033-1.493.264-2.235l.009-.426c.446-.844.783-1.583 1.33-2.211.548-.628 1.09-1.042 1.74-1.454a6.4 6.4 0 0 1 2.04-.594c.747.016 1.493.033 2.235.263s1.478.674 2.002 1.112q.785.658 1.243 1.628c.306.647.398 1.29.381 2.036-.016.746-.033 1.493-.372 2.339l-.453 1.163-7.518-2.516-.027 1.173c-.007.32.197.751.405.969s.415.543.727.87c.313.327.631.441 1.055.557s.53.119.848.233c.317.113.533.012.853.019s.533.012.858-.194.538-.202.756-.41l.914 2.048a2.07 2.07 0 0 1-.972.511c-.322.1-.753.303-1.18.294l-1.386-.032a4.7 4.7 0 0 1-1.592-.356zm2.662-9.222c-.32-.007-.638-.121-.96-.021-.32-.007-.642.092-.86.3-.218.209-.541.308-.761.623-.22.316-.438.524-.659.839l4.658 1.599.005-.214c.114-.317.228-.635.126-.85-.102-.216.012-.534-.194-.858-.102-.216-.308-.541-.519-.652-.208-.218-.526-.332-.95-.448zm10.329-4.034 6.142 2.058-4.461 13.342 3.177 1.032-.799 2.329-9.319-3.09.799-2.329 3.282 1.141 3.662-11.013-3.282-1.141zm12.598 4.229 6.142 2.059-4.461 13.342 3.177 1.032-.799 2.329-9.319-3.091.799-2.329 3.282 1.141 3.662-11.013-3.282-1.141zm8.118 13.947c.232-.849.673-1.479 1.114-2.109s.984-1.045 1.633-1.457c.65-.412 1.294-.611 2.041-.594s1.493.033 2.341.266c.848.232 1.478.673 2.106 1.221.521.545.936 1.088 1.241 1.735s.396 1.396.379 2.142-.034 1.493-.373 2.339l-.005.213c-.339.846-.673 1.479-1.114 2.109s-.984 1.044-1.633 1.457c-.647.305-1.294.611-2.041.594s-1.492-.034-2.341-.266c-.848-.233-1.478-.674-2.108-1.115-.522-.545-.936-1.088-1.241-1.735s-.396-1.395-.379-2.142.036-1.599.373-2.339zm2.855 1.131c-.116.424-.235.955-.351 1.379l-.027 1.173c-.007.32.306.647.512.971.206.325.63.441 1.052.664s.851.126 1.173.027c.322-.1.644-.199.972-.512.324-.206.545-.521.768-.943s.445-.843.562-1.267l.004-.214q.334-.632.349-1.272l.026-1.173c.008-.32-.198-.645-.511-.972s-.524-.438-1.052-.664c-.528-.225-.851-.125-1.173-.026s-.645.199-.972.512c-.327.312-.545.521-.768.942-.223.422-.443.737-.562 1.268l-.004.213zm11.758 8.478c.004-.213.223-.422.334-.632s.327-.313.543-.415c.215-.102.429-.097.644-.199l.747.017c.32.007.422.223.632.334s.313.327.415.543.097.429.199.645c.102.215-.01.426-.015.639s-.223.422-.332.526-.327.313-.542.415-.429.097-.645.199l-.746-.017c-.32-.007-.529-.225-.633-.334-.211-.112-.313-.327-.414-.543-.102-.216-.097-.429-.199-.645-.102-.215.009-.426.014-.639zm4.226-2.892-2.54-.911 3.099-9.745 2.858 1.024zm16-4.547c-.114.318-.337.74-.451 1.057-.114.318-.441.63-.768.943a7.7 7.7 0 0 1-.979.831l-.974.619-1.04-1.197c.434-.311.763-.73 1.095-1.256.33-.419.664-1.052.785-1.689l.574-1.801 2.223.797-.574 1.801zm10.803 12.833c-.341.953-.68 1.798-1.124 2.535-.443.737-.886 1.474-1.434 2.102s-.986 1.151-1.531 1.672a8.4 8.4 0 0 1-1.628 1.244c-.541.308-1.081.616-1.619.817a10 10 0 0 1-1.396.395l.038-1.706c.432-.204.863-.407 1.406-.822.543-.414 1.085-.829 1.633-1.457a15 15 0 0 0 1.652-2.31c.555-.947 1.006-2.004 1.461-3.274l.007-.32c.455-1.27.802-2.436.93-3.393.131-1.064.152-2.024.062-2.772a5.8 5.8 0 0 0-.378-2.143c-.199-.644-.4-1.182-.713-1.509l1.097-1.362c.313.327.626.654.934 1.194s.511.972.817 1.619.398 1.289.596 1.934c.199.644.18 1.497.27 2.246-.019.853-.036 1.599-.164 2.557-.129.957-.361 1.805-.703 2.758l-.004.213z"/><path stroke="#fff" stroke-linejoin="round" stroke-width="4" d="M456 78c25.405 0 46-20.595 46-46s-20.595-46-46-46m0 92c-25.405 0-46-20.595-46-46s20.595-46 46-46m0 92c13.973 0 25.3-20.595 25.3-46S469.973-14 456-14m0 92c-13.973 0-25.3-20.595-25.3-46s11.327-46 25.3-46m0 92v-92m45.996 46.602h-91.992m87.379-20.712h-82.766m82.158 41.423h-81.55M177 229c25.405 0 46-20.595 46-46s-20.595-46-46-46m0 92c-25.405 0-46-20.595-46-46s20.595-46 46-46m0 92c13.973 0 25.3-20.595 25.3-46s-11.327-46-25.3-46m0 92c-13.973 0-25.3-20.595-25.3-46s11.327-46 25.3-46m0 92v-92m45.996 46.602h-91.992m87.379-20.712h-82.766m82.158 41.424h-81.55M931 638c25.405 0 46-20.595 46-46s-20.595-46-46-46m0 92c-25.405 0-46-20.595-46-46s20.595-46 46-46m0 92c13.973 0 25.3-20.595 25.3-46s-11.327-46-25.3-46m0 92c-13.973 0-25.3-20.595-25.3-46s11.327-46 25.3-46m0 92v-92m45.996 46.602h-91.992m87.379-20.712h-82.766m82.158 41.424h-81.55M1396.5 494c41.7 0 75.5-33.803 75.5-75.5s-33.8-75.5-75.5-75.5m0 151c-41.7 0-75.5-33.803-75.5-75.5s33.8-75.5 75.5-75.5m0 151c22.93 0 41.52-33.803 41.52-75.5s-18.59-75.5-41.52-75.5m0 151c-22.93 0-41.52-33.803-41.52-75.5s18.59-75.5 41.52-75.5m0 151V343m75.49 76.488h-150.98m143.41-33.995h-135.84m134.84 67.989h-133.84"/><path stroke="#fff" stroke-linejoin="round" stroke-miterlimit="2" stroke-width="4" d="M668.548 71.032a.3.3 0 0 0 .421-.001L689.03 50.97a.3.3 0 0 0 .002-.423l-26.836-26.836 6.372-6.373a.27.27 0 0 0 .07-.289.27.27 0 0 0-.226-.194l-39.763-6.533a.28.28 0 0 0-.247.08.28.28 0 0 0-.08.247l6.533 39.764a.27.27 0 0 0 .194.226.27.27 0 0 0 .289-.07l6.373-6.374zM-11.75 302.017a.253.253 0 0 0-.25.257v24.451c0 .143.112.259.25.259h31.822v7.767q.001.15.13.219a.22.22 0 0 0 .25-.02L47.9 314.699a.24.24 0 0 0 .1-.199.24.24 0 0 0-.1-.199L20.452 294.05a.22.22 0 0 0-.249-.02.23.23 0 0 0-.13.219v7.768zm1144.11 304.651c0 .183.15.332.34.332h31.6c.19 0 .34-.149.34-.332v-42.431h10.04c.13 0 .22-.059.28-.173a.31.31 0 0 0-.02-.332l-26.18-36.599a.3.3 0 0 0-.26-.133c-.08 0-.18.023-.26.133l-26.18 36.599a.31.31 0 0 0-.02.332c.06.114.15.173.28.173h10.04z"/><path stroke="#fff" stroke-linecap="round" stroke-width="4" d="m262.512 66.46.01 4.466m.089 41.69.01 4.467m17.808-43.248-3.152 3.166m-29.416 29.542-3.152 3.166m35.795-.079-3.165-3.152m-29.541-29.413-3.165-3.152m43.244 17.805-4.467.009m-41.688.09-4.467.009M257.729 57h4.989m0 0h4.989m-4.989 0v6.86m27.079 27.853c.032 15.038-12.133 27.255-27.172 27.287-15.038.032-27.255-12.133-27.287-27.171s12.133-27.256 27.171-27.288 27.256 12.133 27.288 27.172Z"/><path stroke="#fff" stroke-width="4" d="m262.303 91.358-.012-.02-2.625-5.609 4.088 4.527.035.039.038.037a.93.93 0 0 1 .003 1.3c-.231.23-.469.3-.672.293a.96.96 0 0 1-.67-.331l-.03-.032-.029-.03s-.007-.006-.019-.022a1 1 0 0 1-.107-.152Z"/><path stroke="#fff" stroke-linecap="round" stroke-width="4" d="m693.229 234.563-2.125 3.699m-19.833 34.521-2.124 3.699m35.378-27.264-4.118 1.113m-38.435 10.387-4.118 1.113m29.641 17.027-1.113-4.118m-10.386-38.432-1.113-4.118m27.263 35.374-3.699-2.125m-34.52-19.832-3.699-2.125m33.562-19.026 4.126 2.382m0 0 4.126 2.382m-4.126-2.382-3.275 5.673m9.095 35.965c-7.154 12.453-23.049 16.748-35.501 9.594-12.453-7.154-16.748-23.049-9.594-35.501 7.154-12.453 23.049-16.748 35.501-9.594 12.453 7.154 16.748 23.049 9.594 35.501Z"/><path stroke="#fff" stroke-width="4" d="M681.257 255.053v-.017l.455-5.287 1.093 5.106.011.052.014.051a.795.795 0 0 1-.555.965c-.277.075-.481.022-.624-.067a.82.82 0 0 1-.356-.538l-.01-.042-.01-.038-.004-.021q-.005-.032-.009-.08z"/><path stroke="#fff" stroke-linecap="round" stroke-linejoin="round" stroke-miterlimit="2" stroke-width="4" d="M346.106 574.195c8.678 2.404 16.442 8.688 21.301 17.244 4.859 8.558 6.279 18.444 3.898 27.128m-26.401-34.119c5.955 1.43 11.282 5.613 14.61 11.472 3.329 5.862 4.192 12.58 2.369 18.427m-18.987-21.056c3.704.617 7.153 3.168 9.229 6.823 2.077 3.658 2.5 7.928 1.133 11.424m-42.894.094-5.436 3.091c-.778.441-1.073 1.392-.66 2.12l8.777 15.473c.414.729 1.379.96 2.155.519l5.438-3.091c.777-.443 1.074-1.392.661-2.12l-8.777-15.473c-.413-.729-1.379-.961-2.158-.519m11.141-25.634-4.651 16.613a2.97 2.97 0 0 0 .278 2.266l12.863 22.652a2.98 2.98 0 0 0 1.805 1.398l16.649 4.516c2.546.691 4.66-2.035 3.358-4.33l-24.862-43.78c-1.304-2.293-4.728-1.874-5.44.665m714.855-358.429c11.05 5.313 19.95 15.608 24.4 28.248 4.45 12.643 3.97 26.238-1.31 37.305m-27.17-52.097c7.64 3.351 13.77 10.242 16.82 18.898 3.05 8.66 2.59 17.873-1.26 25.271m-20.38-32.799c4.81 1.719 8.82 5.97 10.72 11.37 1.91 5.403 1.45 11.229-1.23 15.586m-57.521-10.208-8.032 2.834c-1.148.403-1.774 1.606-1.395 2.682l8.038 22.856c.379 1.077 1.617 1.619 2.764 1.215l8.033-2.833c1.15-.406 1.776-1.607 1.397-2.683l-8.037-22.856c-.378-1.077-1.617-1.621-2.768-1.215m21.111-31.678-10.237 21.148a4.06 4.06 0 0 0-.174 3.106l11.791 33.463a4 4 0 0 0 2.08 2.31l21.23 10.064c3.24 1.54 6.73-1.605 5.54-4.995l-22.78-64.677c-1.19-3.388-5.88-3.652-7.45-.419m347.65-46.381c9.07 5.338 15.93 14.778 18.82 25.904 2.9 11.129 1.51 22.716-3.8 31.797m-19.48-46.492c6.29 3.415 11.04 9.748 13.02 17.367 1.99 7.623.93 15.465-2.9 21.513m-15.06-29.506c3.99 1.816 7.12 5.739 8.35 10.491 1.24 4.756.43 9.704-2.17 13.236m-48.44-12.865-7.07 1.845c-1.01.262-1.64 1.245-1.39 2.192l5.23 20.118c.24.948 1.26 1.5 2.27 1.238l7.07-1.845c1.02-.264 1.64-1.245 1.39-2.192l-5.22-20.118c-.25-.948-1.27-1.502-2.28-1.238m20.32-25.563-10.27 17.343a3.5 3.5 0 0 0-.37 2.643l7.67 29.455c.23.894.81 1.659 1.61 2.125l17.42 10.131c2.67 1.551 5.88-.888 5.1-3.871l-14.82-56.931c-.77-2.983-4.77-3.545-6.34-.895"/><path stroke="#fff" stroke-linecap="round" stroke-width="5" d="M233.518 233.346c2.287 4.525 6.815 13.568 12.797 15.171s15.465-9.947 21.447-8.344 8.419 16.347 14.4 17.949c5.982 1.603 15.465-9.947 21.447-8.344s9.022 10.942 12.21 17.363m888.121 141.05c2.28 4.525 6.81 13.569 12.79 15.171 5.98 1.603 15.47-9.947 21.45-8.344s8.42 16.347 14.4 17.95 15.46-9.947 21.45-8.345c5.98 1.603 9.02 10.943 12.21 17.363m-561.997 90.395c-.39 6.992-1.218 20.937 4.83 26.986 6.049 6.049 25.369-1.218 31.418 4.83 6.049 6.049-1.219 25.369 4.83 31.418s25.369-1.219 31.418 4.83 3.234 19.32 2.614 29.202"/><path fill="#fff" d="M88.67 379.722c.402.003 1.145-.214 1.661-.481 3.394-1.756 6.671-3.79 8.215-4.921.85-.625 2.156-.392 2.91.517 1.633 1.328 2.841 5.879 2.695 10.171-.098.699.404 1.6 1.126 2.02.564.415 1.592.403 2.295-.022 2.273-1.057 5.509-4.398 7.233-7.463 3.584-6.38 3.442-14.068 1.537-17.251-1.016-1.692-1.317-3.728-.675-4.545.981-1.085 3.28-4.632 5.13-7.925 6.003-8.236 10.151-26.311 9.276-40.367-.063-2.534-.778-7.598-1.6-11.312-.111-1.186-1.28-2.749-2.612-3.484-.97-.707-2.924-.869-4.366-.37-2.448.748-7.168 2.809-10.546 4.606-9.49 3.695-22.81 16.704-29.759 29.053-1.85 3.293-3.44 6.741-4.099 8.498-.362.968-2.265 1.786-4.25 1.818-4.145-.647-10.41 3.995-13.993 10.375-1.462 2.046-2.625 6.528-2.6 10.023q.002.336.1.649c.071.438.558 1.017 1.09 1.3.588.393 1.627.342 2.322-.118 3.605-2.376 8.015-3.368 10.146-3.079 1.18.159 2.06 1.138 1.977 2.185-.227 1.467-.183 5.726.099 9.51.02.332.086.661.187.98a4.46 4.46 0 0 0 2.085 2.549l11.855 6.544c.521.377 1.67.619 2.562.54Zm-.254-2.778c-.33.029-.655-.04-.938-.197l-11.856-6.545c-.215-.089-.511-.398-.664-.693a1.55 1.55 0 0 1-.17-.599c-.318-2.697-.242-8.172.174-12.229.153-3.819 1.843-11.258 3.769-16.617.782-2.494 2.983-7.309 4.925-10.757 6.523-11.605 16.113-21.094 24.637-25.772 1.735-.949 3.153-1.714 3.153-1.714.013.006.039.03.064.054l.361.29c.115.097.355.29.54.431a68 68 0 0 0 .942.72c.091.063.271.199.414.301.121.089.375.27.565.401.091.065.281.197.423.295.13.088.393.27.597.403.086.059.276.187.42.276.138.094.424.272.636.41.087.055.269.169.408.253l.716.433c.079.046.231.14.352.209.235.14.722.416 1.088.617.235.135.732.398 1.098.591.084.041.249.127.372.188.161.086.493.254.738.372l.441.215c.149.072.451.216.674.319.106.046.312.139.469.212.146.063.434.192.654.286.105.047.316.136.474.204.145.058.435.179.65.268.101.038.312.122.466.186.145.053.445.165.665.251.096.037.295.107.44.161.154.054.472.167.706.244.083.033.26.093.388.132.035.012.071.027.088.033.009.005.094 1.594.192 3.558.39 7.593-2.626 22.721-9.15 34.33-1.201 2.352-4.17 6.744-6.636 9.807-2.219 3.114-7.716 8.455-12.275 11.923-2.106 1.747-6.763 4.691-10.4 6.574-.118.078-.393.154-.61.176"/><path fill="#fff" stroke="#fff" stroke-linecap="round" stroke-linejoin="round" d="M117.12 327.039c-.405-2.223-2.93-5.203-5.636-6.657-1.96-1.411-6.049-1.877-9.135-1.041-2.42.329-5.638 2.777-7.194 5.47-1.612 2.79-1.95 6.007-.95 9.061.409 2.223 2.93 5.203 5.636 6.656 1.961 1.412 6.052 1.88 9.136 1.042 2.418-.329 5.641-2.777 7.195-5.467 1.522-1.949 1.948-6.011.948-9.064m-8.704 12.646c-1.86.774-5.257.387-7.587-.866-2.244-1.206-3.907-3.169-4.68-5.528-.903-1.837-.549-5.207.79-7.523.736-1.813 3.412-3.847 5.973-4.539 1.86-.775 5.255-.39 7.585.863 1.812.696 3.906 3.169 4.678 5.527.904 1.841.549 5.208-.785 7.523-.741 1.812-3.415 3.847-5.974 4.543"/><path stroke="#fff" stroke-linecap="round" stroke-linejoin="round" stroke-width="4" d="m79.075 384.143 1.954 13.824a2 2 0 0 1-1.12 2.086l-8.897 4.234a2 2 0 0 0-1.128 2.028l1.776 15.893a2 2 0 0 1-1.346 2.116l-11.944 4.049a2 2 0 0 0-1.35 2.066l1.756 20.43M73.7 378.626l-11.794 3.761a2 2 0 0 0-1.39 1.821l-.396 9.41a2 2 0 0 1-1.776 1.904l-12.79 1.429a2 2 0 0 0-1.752 1.663l-2.094 12.72a2 2 0 0 1-1.58 1.637L16 417.812"/><path fill="#fff" d="M880.672 368.237c.478.004 1.364-.254 1.98-.573 4.048-2.094 7.956-4.521 9.798-5.869 1.014-.746 2.571-.468 3.47.616 1.948 1.584 3.389 7.012 3.214 12.131-.117.834.482 1.908 1.343 2.409.673.495 1.899.481 2.737-.026 2.711-1.261 6.571-5.245 8.627-8.901 4.274-7.609 4.106-16.778 1.833-20.575-1.211-2.018-1.57-4.446-.805-5.421 1.171-1.293 3.912-5.523 6.119-9.451 7.159-9.823 12.106-31.381 11.062-48.145-.074-3.021-.927-9.061-1.908-13.491-.132-1.414-1.526-3.279-3.115-4.155-1.156-.843-3.488-1.037-5.207-.441-2.919.892-8.549 3.35-12.578 5.493-11.319 4.406-27.204 19.922-35.492 34.651-2.206 3.927-4.103 8.039-4.888 10.135-.433 1.154-2.702 2.13-5.069 2.168-4.945-.772-12.416 4.765-16.69 12.373-1.743 2.441-3.13 7.787-3.101 11.955 0 .266.043.525.119.774.086.522.666 1.212 1.3 1.551.702.469 1.941.408 2.77-.141 4.3-2.834 9.559-4.017 12.101-3.672 1.407.189 2.456 1.356 2.358 2.605-.271 1.75-.218 6.83.118 11.343.024.395.102.788.222 1.168.048.185.193.539.327.803a5.3 5.3 0 0 0 2.16 2.237l14.14 7.806c.621.449 1.991.737 3.055.643m-.304-3.313a1.95 1.95 0 0 1-1.119-.235l-14.14-7.806c-.257-.106-.61-.474-.792-.826-.093-.15-.186-.469-.202-.715-.38-3.216-.289-9.746.206-14.584.183-4.555 2.199-13.427 4.496-19.819.932-2.975 3.558-8.718 5.873-12.83 7.781-13.84 19.219-25.157 29.384-30.737 2.07-1.132 3.761-2.044 3.761-2.044a.4.4 0 0 1 .076.064l.43.346c.138.115.425.346.645.515a68 68 0 0 0 1.124.857c.108.076.323.238.493.36a77 77 0 0 0 1.179.829c.155.106.469.323.712.482.102.07.329.223.5.329.165.111.507.325.759.489.103.065.321.202.486.301l.854.517c.095.054.276.167.42.249.28.168.861.497 1.298.737.28.16.873.474 1.31.704.1.049.297.151.443.224.192.102.588.303.88.444a55 55 0 0 0 1.33.637c.127.055.372.166.56.253.173.075.517.228.78.341.125.056.376.161.565.243.172.069.519.213.775.32.121.044.372.145.555.221.174.063.531.197.794.299.115.045.352.129.525.193.184.064.562.199.842.291.098.039.309.11.462.157.042.014.085.032.106.039.01.006.112 1.902.229 4.244.464 9.056-3.133 27.099-10.914 40.944-1.432 2.806-4.973 8.044-7.915 11.696-2.645 3.715-9.201 10.085-14.639 14.221-2.511 2.084-8.066 5.594-12.403 7.84-.141.093-.469.184-.728.21"/><path fill="#fff" stroke="#fff" stroke-linecap="round" stroke-linejoin="round" d="M914.602 305.404c-.484-2.651-3.495-6.205-6.722-7.939-2.338-1.684-7.214-2.239-10.895-1.242-2.885.392-6.725 3.312-8.58 6.524-1.923 3.328-2.327 7.165-1.133 10.807.487 2.651 3.495 6.205 6.722 7.939 2.338 1.683 7.218 2.241 10.895 1.242 2.885-.393 6.728-3.312 8.583-6.521 1.815-2.324 2.323-7.168 1.13-10.81m-10.381 15.083c-2.218.923-6.27.461-9.049-1.033-2.677-1.438-4.659-3.78-5.581-6.593-1.077-2.191-.655-6.211.942-8.972.878-2.163 4.069-4.588 7.124-5.414 2.218-.924 6.267-.465 9.045 1.029 2.162.83 4.66 3.779 5.581 6.592 1.077 2.195.654 6.211-.937 8.973-.883 2.161-4.074 4.588-7.125 5.418"/><path stroke="#fff" stroke-linecap="round" stroke-linejoin="round" stroke-width="4" d="m869.227 373.51 2.371 16.768a2 2 0 0 1-1.121 2.086l-11.114 5.289a2 2 0 0 0-1.128 2.028l2.183 19.536a2 2 0 0 1-1.346 2.116l-14.825 5.026a2 2 0 0 0-1.351 2.066l2.121 24.667m17.801-86.162-14.324 4.567a2 2 0 0 0-1.39 1.822l-.498 11.822a2 2 0 0 1-1.776 1.904l-15.873 1.773a2 2 0 0 0-1.751 1.663l-2.588 15.722a2 2 0 0 1-1.58 1.636L794 413.665M1095.23-4.49l2.37 16.768a2 2 0 0 1-1.12 2.085l-11.12 5.29a1.99 1.99 0 0 0-1.12 2.028l2.18 19.536c.1.934-.46 1.815-1.35 2.116l-14.82 5.026a2 2 0 0 0-1.35 2.066l2.12 24.667m17.8-86.162-14.33 4.567c-.8.255-1.35.983-1.39 1.822l-.49 11.822c-.05.986-.8 1.794-1.78 1.904l-15.87 1.773c-.89.1-1.61.779-1.75 1.663l-2.59 15.722a2.01 2.01 0 0 1-1.58 1.636L1020 35.665"/><path fill="#fff" d="M421.017 294.199c.226-.386.432-1.224.462-1.872.197-4.256.059-8.555-.172-10.677-.13-1.169.823-2.301 2.121-2.522 2.194-.837 7.262.534 11.326 3.069.62.484 1.77.502 2.578.039.715-.314 1.277-1.313 1.259-2.229.245-2.785-1.176-7.773-3.175-11.147-4.163-7.018-11.666-11.168-15.803-11.102-2.201.037-4.334-.808-4.766-1.883-.5-1.552-2.644-5.75-4.792-9.373-4.608-10.389-19.751-24.473-33.813-31.465-2.482-1.353-7.771-3.486-11.817-4.763-1.206-.554-3.368-.296-4.82.581-1.223.542-2.47 2.339-2.792 4.009-.642 2.781-1.283 8.489-1.433 12.753-1.722 11.226 3.414 31.342 11.466 44.939 2.149 3.622 4.592 7.081 5.921 8.696.733.89.463 3.184-.613 5.118-2.937 3.643-1.946 12.281 2.216 19.299 1.162 2.552 4.842 6.175 8.231 8.1.215.124.445.211.682.266.463.174 1.293.027 1.863-.328.708-.349 1.239-1.381 1.181-2.31-.284-4.805 1.216-9.617 2.684-11.514.811-1.051 2.247-1.355 3.212-.691 1.29 1.037 5.429 3.369 9.24 5.207a4.5 4.5 0 0 0 1.05.366 4.97 4.97 0 0 0 3.624-.593l12.931-7.8c.655-.293 1.528-1.267 1.949-2.173m-2.825-1.303c-.156.336-.404.61-.713.797l-12.931 7.8c-.206.158-.67.272-1.04.255-.164.005-.467-.069-.673-.171-2.782-1.196-8.027-4.322-11.713-6.985-3.603-2.277-9.844-8.057-13.946-12.906-1.973-2.145-5.396-6.956-7.643-10.754-7.569-12.77-11.386-27.322-11.152-38.163.051-2.205.103-4 .103-4a.5.5 0 0 1 .088-.032l.481-.187c.158-.057.478-.181.718-.281a83 83 0 0 0 1.22-.509c.111-.052.343-.151.522-.231a54 54 0 0 0 1.222-.567c.158-.076.48-.229.723-.351.105-.05.334-.163.5-.251.168-.082.5-.259.751-.387.101-.053.313-.165.471-.252l.819-.45c.087-.051.263-.145.397-.224.267-.148.805-.465 1.203-.707.261-.151.793-.484 1.183-.731.086-.058.261-.17.389-.253.172-.109.52-.335.771-.506l.453-.307a40 40 0 0 0 1.151-.807c.141-.106.426-.312.64-.472.104-.075.307-.229.461-.345.136-.107.415-.319.622-.478a24 24 0 0 1 .438-.346c.132-.11.408-.337.614-.502.089-.072.268-.225.401-.335.138-.119.424-.362.63-.546.077-.061.233-.199.343-.301.031-.028.065-.053.081-.067.009-.005 1.592.798 3.544 1.799 7.549 3.857 20.478 15.205 28.051 27.978 1.602 2.471 4.188 7.788 5.771 11.877 1.771 3.878 3.864 12.165 4.671 18.502.513 3.008.758 9.147.55 13.709.009.157-.071.465-.171.687"/><path fill="#fff" stroke="#fff" stroke-linecap="round" stroke-linejoin="round" d="M386.001 237.349c-2.373-.847-6.658-.07-9.571 1.732-2.456 1.106-5.185 4.795-6.099 8.242-1.031 2.519-.462 6.993 1.272 9.997 1.795 3.113 4.714 5.234 8.221 5.97 2.374.845 6.658.07 9.571-1.732 2.456-1.106 5.189-4.796 6.099-8.242 1.031-2.518.464-6.996-1.268-9.997-1.033-2.557-4.718-5.233-8.225-5.97m7.36 15.458c-.289 2.227-2.558 5.293-5.067 6.844-2.415 1.495-5.238 2.006-7.947 1.437-2.278-.152-5.335-2.373-6.825-4.957-1.341-1.722-1.813-5.44-1.053-8.299.288-2.228 2.553-5.293 5.062-6.844 1.683-1.362 5.238-2.006 7.947-1.436 2.281.153 5.335 2.373 6.827 4.953 1.337 1.725 1.811 5.443 1.056 8.302"/><path fill="#fff" d="M1244.76 613.748c.59.004 1.69-.316 2.46-.711 5.01-2.596 9.86-5.604 12.14-7.276 1.26-.924 3.19-.58 4.3.763 2.42 1.965 4.21 8.694 3.99 15.04-.15 1.033.6 2.365 1.66 2.987.84.612 2.36.595 3.4-.033 3.36-1.564 8.14-6.503 10.69-11.035 5.3-9.433 5.09-20.8 2.27-25.507-1.5-2.502-1.94-5.512-.99-6.721 1.45-1.603 4.85-6.848 7.58-11.717 8.88-12.178 15.01-38.904 13.72-59.687-.1-3.746-1.15-11.234-2.37-16.726-.16-1.753-1.89-4.064-3.86-5.15-1.43-1.045-4.32-1.286-6.46-.548-3.62 1.106-10.59 4.154-15.59 6.81-14.03 5.463-33.73 24.699-44 42.958-2.74 4.87-5.09 9.968-6.06 12.565-.54 1.432-3.35 2.641-6.28 2.688-6.13-.956-15.4 5.907-20.7 15.34-2.16 3.025-3.88 9.653-3.84 14.821q0 .496.15.96c.1.646.82 1.502 1.61 1.922.87.581 2.41.506 3.43-.175 5.33-3.513 11.85-4.98 15.01-4.552 1.74.234 3.04 1.681 2.92 3.23-.34 2.169-.27 8.467.14 14.061.03.491.13.978.28 1.449.06.229.24.668.41.995a6.6 6.6 0 0 0 2.67 2.774l17.53 9.677c.77.557 2.47.914 3.79.798m-.38-4.108c-.49.043-.96-.059-1.38-.291l-17.53-9.677c-.32-.133-.76-.589-.99-1.025-.11-.185-.23-.582-.25-.886-.47-3.988-.35-12.083.26-18.081.23-5.647 2.73-16.646 5.57-24.57 1.16-3.688 4.41-10.808 7.28-15.906 9.65-17.158 23.83-31.188 36.43-38.106 2.57-1.403 4.67-2.533 4.67-2.533.02.008.05.044.09.079.11.093.36.286.53.428.17.144.53.429.8.638.13.1.39.302.59.453.17.135.53.409.81.611.13.094.4.294.61.446.18.131.55.398.83.593.14.095.42.29.63.435.19.131.58.4.88.597.13.087.41.276.62.408.21.138.63.403.94.606.13.081.4.25.61.374l1.05.641c.12.067.35.206.52.308a77 77 0 0 0 3.24 1.786l.55.279c.24.126.73.375 1.09.55.14.068.44.212.65.317.22.106.67.32 1 .472.15.068.46.206.69.314.22.092.64.283.97.422.15.07.46.201.7.302.21.085.64.264.96.396.15.056.46.181.69.275.21.078.66.244.98.371.14.055.44.159.65.239.23.079.7.247 1.05.361.12.048.38.136.57.194.05.017.1.04.13.049.01.007.14 2.357.28 5.261.58 11.227-3.88 33.596-13.53 50.759-1.77 3.479-6.16 9.973-9.81 14.501-3.28 4.605-11.41 12.502-18.15 17.63-3.11 2.583-10 6.935-15.37 9.72-.18.115-.59.228-.91.26"/><path fill="#fff" stroke="#fff" stroke-linecap="round" stroke-linejoin="round" d="M1286.83 535.85c-.6-3.287-4.34-7.692-8.34-9.842-2.9-2.087-8.94-2.775-13.51-1.539-3.57.486-8.33 4.105-10.63 8.087-2.39 4.126-2.89 8.883-1.41 13.398.61 3.287 4.34 7.693 8.34 9.842 2.9 2.087 8.94 2.78 13.5 1.54 3.58-.486 8.35-4.106 10.64-8.084 2.25-2.881 2.88-8.886 1.41-13.402m-12.87 18.699c-2.75 1.145-7.78.572-11.22-1.28-3.32-1.783-5.78-4.686-6.92-8.174-1.34-2.716-.81-7.699 1.17-11.123 1.08-2.681 5.04-5.688 8.83-6.711 2.75-1.146 7.77-.577 11.21 1.275 2.68 1.029 5.78 4.686 6.92 8.173 1.34 2.721.81 7.7-1.16 11.123-1.1 2.68-5.05 5.688-8.83 6.717"/><path fill="#fff" d="M456.526 146.188c9.296 0 16.773-7.379 16.773-16.553 0-1.396 1.213-2.493 2.526-2.493 1.314 0 2.526 1.097 2.526 2.493 0 9.174 7.477 16.553 16.773 16.553 1.415 0 2.526 1.097 2.526 2.493s-1.111 2.493-2.526 2.493c-9.296 0-16.773 7.379-16.773 16.552 0 1.396-1.212 2.493-2.526 2.493-1.414 0-2.526-1.097-2.526-2.493 0-9.173-7.477-16.552-16.773-16.552-1.415 0-2.526-1.097-2.526-2.493s1.111-2.493 2.526-2.493m39.61-30.912c4.042 0 7.275-3.19 7.275-7.179 0-.598.506-1.097 1.112-1.097s1.111.499 1.111 1.097c0 3.989 3.234 7.179 7.275 7.179.607 0 1.112.499 1.112 1.097 0 .599-.505 1.097-1.112 1.097-4.041 0-7.275 3.191-7.275 7.18 0 .598-.505 1.097-1.111 1.097a1.115 1.115 0 0 1-1.112-1.097c0-3.989-3.233-7.18-7.275-7.18a1.113 1.113 0 0 1-1.111-1.097c0-.598.505-1.097 1.111-1.097m7.979 51.254c4.042 0 7.276-3.191 7.276-7.18 0-.598.505-1.097 1.111-1.097s1.111.499 1.111 1.097c0 3.989 3.234 7.18 7.276 7.18.606 0 1.111.498 1.111 1.097 0 .598-.505 1.097-1.111 1.097-4.042 0-7.276 3.19-7.276 7.179 0 .598-.505 1.097-1.111 1.097a1.114 1.114 0 0 1-1.111-1.097c0-3.989-3.234-7.179-7.276-7.179a1.114 1.114 0 0 1-1.111-1.097c0-.599.505-1.097 1.111-1.097M146.266 366.709c8.339 0 15.046-6.535 15.046-14.661 0-1.236 1.088-2.208 2.266-2.208 1.179 0 2.266.972 2.266 2.208 0 8.126 6.708 14.661 15.047 14.661 1.269 0 2.266.972 2.266 2.208s-.997 2.208-2.266 2.208c-8.339 0-15.047 6.536-15.047 14.661 0 1.237-1.087 2.208-2.266 2.208-1.269 0-2.266-.971-2.266-2.208 0-8.125-6.707-14.661-15.046-14.661-1.269 0-2.266-.971-2.266-2.208 0-1.236.997-2.208 2.266-2.208m35.533-27.378c3.625 0 6.526-2.827 6.526-6.359 0-.53.453-.972.997-.972s.997.442.997.972c0 3.532 2.901 6.359 6.526 6.359.544 0 .997.441.997.971s-.453.972-.997.972c-3.625 0-6.526 2.826-6.526 6.359 0 .53-.453.971-.997.971s-.997-.441-.997-.971c0-3.533-2.901-6.359-6.526-6.359-.544 0-.997-.442-.997-.972s.453-.971.997-.971m7.157 45.395c3.626 0 6.527-2.826 6.527-6.359 0-.53.453-.971.997-.971s.997.441.997.971c0 3.533 2.9 6.359 6.526 6.359.544 0 .997.442.997.972s-.453.971-.997.971c-3.626 0-6.526 2.827-6.526 6.359 0 .53-.453.972-.997.972s-.997-.442-.997-.972c0-3.532-2.901-6.359-6.527-6.359-.543 0-.997-.441-.997-.971s.454-.972.997-.972m160.161-237.387-12.313 2.69a3.21 3.21 0 0 0-2.454 3.825l.639 2.929a3.215 3.215 0 0 0 3.827 2.454l12.313-2.69a3.214 3.214 0 0 0 2.455-3.825l-.64-2.929a3.215 3.215 0 0 0-3.827-2.454"/><path stroke="#fff" stroke-linejoin="round" stroke-miterlimit="2" stroke-width="4" d="M420.631 151.449c1.571 14.97-7.747 29.077-22.154 33.545-12.753 3.956-26.297-.264-34.525-10.74-2.465-3.136-6.362-4.568-10.168-3.737l-11.221 2.451c-3.806.831-6.747 3.749-7.672 7.617-2.875 11.991-12.12 21.068-24.13 23.692a31.9 31.9 0 0 1-25.145-5.093c-7.38-5.206-12.078-13.045-13.231-22.072-2.063-16.15 9.176-31.607 25.581-35.19l84.201-18.392a31.87 31.87 0 0 1 25.438 5.302c7.434 5.371 12.06 13.403 13.026 22.617Z"/><path fill="#fff" d="M367.659 67.17a2 2 0 0 0-3.909.846zm1.714 17.362-1.955.423.001.004zm-4.635 7.224-.427-1.954zm-16.559 3.617.427 1.954zm-12.002 18.712 1.956-.417-.002-.01zm1.767 17.885.417 1.956 3.912-.834-.417-1.956zm25.806-63.954 3.668 16.94 3.909-.847-3.668-16.94zm3.669 16.943a4.076 4.076 0 0 1-3.108 4.843l.854 3.908c4.349-.95 7.111-5.257 6.162-9.605zm-3.108 4.843-16.558 3.617.853 3.908 16.559-3.617zm-16.558 3.617c-9.549 2.084-15.615 11.545-13.53 21.093l3.908-.854c-1.614-7.39 3.086-14.718 10.475-16.331zm-13.532 21.083 3.723 17.468 3.912-.834-3.723-17.468zm-20.198 51.838-6.586 1.439-1.439-6.586a2.265 2.265 0 0 0-2.698-1.732l-4.551.994a2.27 2.27 0 0 0-1.731 2.699l1.438 6.586-6.585 1.439a2.266 2.266 0 0 0-1.731 2.698l.993 4.55a2.27 2.27 0 0 0 2.699 1.732l6.586-1.439 1.439 6.586a2.267 2.267 0 0 0 2.698 1.731l4.551-.994a2.267 2.267 0 0 0 1.731-2.698l-1.439-6.586 6.587-1.439a2.267 2.267 0 0 0 1.73-2.699l-.993-4.55a2.266 2.266 0 0 0-2.699-1.731m72.171-27.638a5.034 5.034 0 0 0-3.847 5.995 5.034 5.034 0 0 0 5.997 3.845 5.034 5.034 0 0 0 3.845-5.996 5.035 5.035 0 0 0-5.995-3.844m4.95 22.676a5.036 5.036 0 1 0 2.15 9.841 5.035 5.035 0 0 0 3.845-5.996 5.034 5.034 0 0 0-5.995-3.845m8.843-13.922a5.033 5.033 0 0 0-3.846 5.996 5.034 5.034 0 0 0 5.996 3.845 5.035 5.035 0 0 0 3.846-5.994 5.036 5.036 0 0 0-5.996-3.847m-22.652 5.06a5.034 5.034 0 0 0-3.846 5.996 5.034 5.034 0 0 0 5.996 3.845 5.034 5.034 0 0 0 3.845-5.994 5.035 5.035 0 0 0-5.995-3.847"/></g><defs><clipPath id="a"><path fill="#fff" d="M0 0h1392v599H0z"/></clipPath></defs></svg>
