<svg width="61" height="60" viewBox="0 0 61 60" fill="none" xmlns="http://www.w3.org/2000/svg">
  <rect width="60.1" height="60.1" transform="translate(0 -0.0507812)" fill="#101B29"/>
  <path fillRule="evenodd" clipRule="evenodd" d="M43.2871 15H39.4799V18.8072H43.2871V15ZM39.4814 18.8089H43.2885V22.616H39.4814V18.8089ZM31.867 22.6206H35.6737V26.4237V26.4278V30.224V30.2309V34.0311H31.8665V30.2309V30.224V26.4278H28.226V30.224V30.2309V34.0311H24.4189V30.2309V30.224V26.4278V26.4237V22.6206H28.0598H28.226H31.8665H31.867ZM12.9973 26.4237H16.8033H16.8045H20.6105V30.224V30.2309V34.0311H16.8033V30.2309H12.9973V26.4237ZM43.2885 30.224V26.4278V26.4237V22.6206H39.4814V26.4237V26.4278V30.224V30.2309V34.0311H43.2885V30.2309V30.224ZM31.8665 34.0328H35.6737V37.84H31.8665V34.0328ZM28.226 34.0328H24.4201H24.4189H20.6129V37.84H24.4189H24.4201H28.226V34.0328ZM16.8033 34.0328H20.6105V37.84H16.8033V34.0328ZM39.4814 34.0328H43.2885V37.84H39.4814V34.0328ZM31.8665 41.6489V45.4548H35.6737V41.6489V41.6477V37.8417H31.8665V41.6477V41.6489ZM35.6754 41.6477H39.4814V37.8417H43.2885V41.6477V41.6489V45.4548H39.4825H39.4814H35.6754V41.6477Z" fill="#14BCAC"/>
</svg>
