<?xml version="1.0" encoding="UTF-8" standalone="no"?>
<svg width="60" height="60" viewBox="0 0 60 60" fill="none" xmlns="http://www.w3.org/2000/svg">
  <rect width="60" height="60" x="0" y="0" fill="#101B29" />
  <path
     fillRule="evenodd"
     clipRule="evenodd"
     d="m 43.2871,15 h -3.8072 v 3.8072 h 3.8072 z m -3.8057,3.8089 h 3.8071 v 3.8071 h -3.8071 z m -7.6144,3.8117 h 3.8067 v 3.8031 0.0041 3.7962 0.0069 3.8002 H 31.8665 V 30.2309 30.224 26.4278 H 28.226 v 3.7962 0.0069 3.8002 H 24.4189 V 30.2309 30.224 26.4278 26.4237 22.6206 h 3.6409 0.1662 3.6405 z m -18.8697,3.8031 h 3.806 0.0012 3.806 v 3.8003 0.0069 3.8002 h -3.8072 v -3.8002 h -3.806 z m 30.2912,3.8003 v -3.7962 -0.0041 -3.8031 h -3.8071 v 3.8031 0.0041 3.7962 0.0069 3.8002 h 3.8071 v -3.8002 z m -11.422,3.8088 h 3.8072 V 37.84 h -3.8072 z m -3.6405,0 h -3.8059 -0.0012 -3.806 V 37.84 h 3.806 0.0012 3.8059 z m -11.4227,0 h 3.8072 V 37.84 h -3.8072 z m 22.6781,0 h 3.8071 V 37.84 h -3.8071 z m -7.6149,7.6161 v 3.8059 h 3.8072 v -3.8059 -0.0012 -3.806 h -3.8072 v 3.806 z m 3.8089,-0.0012 h 3.806 v -3.806 h 3.8071 v 3.806 0.0012 3.8059 h -3.806 -0.0011 -3.806 z"
     fill="#14bcac" />
</svg>
