<svg xmlns="http://www.w3.org/2000/svg" width="32" height="32" fill="none"><rect width="32" height="32" fill="#14bdac" rx="4"/><path fill="#fff" d="M15.606 15.689h-1.971c-1.38 0-2.267.886-2.267 2.266v1.774q0 .296-.296.296h-.887c-.887 0-1.577-.394-1.97-1.183-.296-.591-.494-1.182-.494-1.774-.098-1.084-.098-2.168.296-3.252.296-.887.887-1.577 1.873-1.774h5.716c.098 0 .295 0 .295-.099v-.492s-.197-.099-.295-.099h-3.351c-.296 0-.394-.099-.394-.394V9.677c0-.69.295-1.183.887-1.38.493-.197.985-.394 1.478-.493 1.183-.197 2.365-.197 3.548.099.493.098.986.295 1.38.591.394.394.69.788.591 1.38v3.548c0 1.38-.788 2.168-2.168 2.168-.69.098-1.38.098-1.971.098m-2.76-5.914c0 .394.296.789.789.789.394 0 .788-.395.788-.789s-.394-.69-.788-.788a.777.777 0 0 0-.789.788m3.548 6.899h1.971c1.38 0 2.267-.887 2.267-2.267v-1.774q0-.295.296-.295h.887c.887 0 1.577.394 1.97 1.182.296.592.494 1.183.494 1.774.098 1.084.098 2.168-.296 3.253-.296.887-.887 1.576-1.873 1.773h-5.716c-.098 0-.295 0-.295.1v.492s.197.098.295.098h3.351c.296 0 .394.099.394.395v1.28c0 .69-.295 1.184-.887 1.38-.493.198-.985.395-1.478.493-1.183.198-2.365.198-3.548-.098a3.45 3.45 0 0 1-1.38-.591c-.394-.395-.69-.789-.591-1.38V18.94c0-1.38.788-2.168 2.168-2.168.69-.099 1.38-.099 1.971-.099m2.76 5.913a.777.777 0 0 0-.789-.788c-.394 0-.788.394-.788.788s.394.69.788.789a.777.777 0 0 0 .789-.789"/></svg>