<svg width="40" height="40" viewBox="0 0 40 40" fill="none" xmlns="http://www.w3.org/2000/svg">
<rect width="40" height="40" rx="4" fill="#101B29"/>
<path d="M19.5001 19.375H17.0001C15.2501 19.375 14.1251 20.5 14.1251 22.25V24.5C14.1251 24.75 14.0001 24.875 13.7501 24.875H12.6251C11.5001 24.875 10.6251 24.375 10.1251 23.375C9.75011 22.625 9.50011 21.875 9.50011 21.125C9.37511 19.75 9.37511 18.375 9.87511 17C10.2501 15.875 11.0001 15 12.2501 14.75H19.5001C19.6251 14.75 19.8751 14.75 19.8751 14.625V14C19.8751 14 19.6251 13.875 19.5001 13.875H15.2501C14.8751 13.875 14.7501 13.75 14.7501 13.375V11.75C14.7501 10.875 15.1251 10.25 15.8751 9.99998C16.5001 9.74998 17.1251 9.49998 17.7501 9.37498C19.2501 9.12498 20.7501 9.12498 22.2501 9.49998C22.8751 9.62498 23.5001 9.87498 24.0001 10.25C24.5001 10.75 24.8751 11.25 24.7501 12V16.5C24.7501 18.25 23.7501 19.25 22.0001 19.25C21.1251 19.375 20.2501 19.375 19.5001 19.375ZM16.0001 11.875C16.0001 12.375 16.3751 12.875 17.0001 12.875C17.5001 12.875 18.0001 12.375 18.0001 11.875C18.0001 11.375 17.5001 11 17.0001 10.875C16.3751 10.875 16.0001 11.375 16.0001 11.875ZM20.5001 20.625H23.0001C24.7501 20.625 25.8751 19.5 25.8751 17.75V15.5C25.8751 15.25 26.0001 15.125 26.2501 15.125H27.3751C28.5001 15.125 29.3751 15.625 29.8751 16.625C30.2501 17.375 30.5001 18.125 30.5001 18.875C30.6251 20.25 30.6251 21.625 30.1251 23C29.7501 24.125 29.0001 25 27.7501 25.25H20.5001C20.3751 25.25 20.1251 25.25 20.1251 25.375V26C20.1251 26 20.3751 26.125 20.5001 26.125H24.7501C25.1251 26.125 25.2501 26.25 25.2501 26.625V28.25C25.2501 29.125 24.8751 29.75 24.1251 30C23.5001 30.25 22.8751 30.5 22.2501 30.625C20.7501 30.875 19.2501 30.875 17.7501 30.5C17.1251 30.375 16.5001 30.125 16.0001 29.75C15.5001 29.25 15.1251 28.75 15.2501 28V23.5C15.2501 21.75 16.2501 20.75 18.0001 20.75C18.8751 20.625 19.7501 20.625 20.5001 20.625ZM24.0001 28.125C24.0001 27.625 23.6251 27.125 23.0001 27.125C22.5001 27.125 22.0001 27.625 22.0001 28.125C22.0001 28.625 22.5001 29 23.0001 29.125C23.6251 29.125 24.0001 28.625 24.0001 28.125Z" fill="#89DDD5"/>
</svg>
