<svg xmlns="http://www.w3.org/2000/svg" width="32" height="32" fill="none"><rect width="32" height="32" fill="#14bdac" rx="4"/><path fill="#fff" d="M15.527 15.626h-2.365c-1.656 0-2.72 1.065-2.72 2.72v2.129q0 .355-.355.355H9.022c-1.064 0-1.892-.473-2.365-1.42-.355-.709-.591-1.419-.591-2.128-.119-1.301-.119-2.602.354-3.903.355-1.064 1.065-1.892 2.248-2.129h6.859c.118 0 .355 0 .355-.118v-.591s-.237-.119-.355-.119h-4.021c-.355 0-.473-.118-.473-.473V8.412c0-.828.355-1.42 1.064-1.656.592-.236 1.183-.473 1.774-.591 1.42-.237 2.839-.237 4.258.118.591.118 1.182.355 1.656.71.473.473.827.946.71 1.655v4.258c0 1.656-.947 2.602-2.603 2.602-.828.118-1.655.118-2.365.118M12.216 8.53c0 .473.354.946.946.946.473 0 .946-.473.946-.946s-.473-.828-.946-.946c-.592 0-.947.473-.947.946m4.257 8.279h2.365c1.656 0 2.72-1.065 2.72-2.72v-2.13q0-.354.355-.354h1.065c1.064 0 1.892.473 2.365 1.42.355.709.591 1.418.591 2.128.119 1.3.119 2.602-.355 3.903-.354 1.064-1.064 1.892-2.247 2.129h-6.859c-.118 0-.355 0-.355.118v.591s.237.118.355.118h4.021c.355 0 .473.119.473.473v1.538c0 .828-.355 1.42-1.064 1.656-.592.236-1.183.473-1.774.591-1.42.236-2.839.236-4.258-.118-.591-.119-1.182-.355-1.655-.71-.474-.473-.828-.946-.71-1.656V19.53c0-1.656.946-2.602 2.602-2.602.828-.118 1.656-.118 2.365-.118m3.312 7.096c0-.473-.355-.947-.947-.947-.473 0-.946.474-.946.947s.473.828.946.946c.592 0 .947-.473.947-.946"/></svg>