<?xml version="1.0" encoding="UTF-8"?>
<svg width="27px" height="33px" viewBox="0 0 27 33" version="1.1" xmlns="http://www.w3.org/2000/svg" xmlns:xlink="http://www.w3.org/1999/xlink">
    <!-- Generator: sketchtool 58 (101010) - https://sketch.com -->
    <title>9CC468E2-A44A-45BC-BBC9-40165CDF0EB2@1.00x</title>
    <desc>Created with sketchtool.</desc>
    <defs>
        <polygon id="path-1" points="0 0 26.4515625 0 26.4515625 33 0 33"></polygon>
    </defs>
    <g id="Designs" stroke="none" stroke-width="1" fill="none" fill-rule="evenodd">
        <g id="Landing-page---Desktop" transform="translate(-50.000000, -9.000000)">
            <g id="Brand/Raspberry-Pi/White/Solo" transform="translate(50.000000, 9.000000)">
                <g id="Page-1" transform="translate(0.337500, 0.000000)">
                    <mask id="mask-2" fill="white">
                        <use xlink:href="#path-1"></use>
                    </mask>
                    <g id="Clip-2"></g>
                    <path d="M18.7774611,23.7250595 C17.5887046,25.0852552 16.9267681,27.566239 17.7939313,28.3652414 C18.6230576,28.9859535 20.8489608,28.8992062 22.4931378,26.670525 C23.6869981,25.1737076 23.2869673,22.6738079 22.6050454,22.0100418 C21.5919672,21.2445554 20.1377054,22.2241925 18.7774611,23.7246333 L18.7774611,23.7250595 Z M7.71585278,24.1348713 C6.45494461,22.7057253 4.81683848,21.8534916 3.75659039,22.4844877 C3.04753773,23.0114723 2.91752504,24.8058308 3.92716489,26.5689113 C5.42445976,28.6702956 7.53098763,28.880823 8.39847311,28.3695041 C9.31527745,27.6998767 8.81445999,25.428035 7.71585278,24.1348713 L7.71585278,24.1348713 Z M13.4269555,28.4699456 C11.8933968,28.4324865 9.541564,29.0701965 9.57019902,29.8870492 C9.54570076,30.4441929 11.4164866,32.0514159 13.3245571,31.9710628 C15.1668691,32.0020211 17.0705342,30.3971959 17.044854,29.6869123 C17.0408247,28.9554747 14.9700235,28.4041391 13.4269555,28.4699456 L13.4269555,28.4699456 Z M13.2901736,9.27284041 C11.5202282,9.22786822 9.82152107,10.5561997 9.81737129,11.3265883 C9.81244167,12.2627452 11.2167936,13.2212817 13.3022078,13.2456328 C15.4318909,13.2604992 16.7907921,12.478388 16.7976387,11.5122318 C16.8054588,10.4176065 14.8607483,9.25589591 13.2901736,9.27273384 L13.2901736,9.27284041 Z M9.20449805,10.0054502 C6.2387045,9.51624441 3.77131084,11.2378695 3.8709156,14.3791558 C3.96837139,15.5834941 10.2970881,10.1848061 9.20449805,10.0054502 L9.20449805,10.0054502 Z M22.7318346,14.4713382 C22.8314394,11.3297321 20.3637771,9.60848004 17.3982522,10.0976858 C16.3056083,10.2769885 22.6343251,15.6757297 22.7318346,14.4713382 L22.7318346,14.4713382 Z M23.1616286,15.615305 C21.4430973,15.1654765 22.5815679,22.5608446 23.9797952,21.9540929 C25.5177594,20.7454919 26.0131507,17.2060098 23.1616286,15.615305 L23.1616286,15.615305 Z M2.48493738,22.0459556 C3.88305728,22.6527072 5.02125926,15.2575523 3.30294282,15.7075406 C0.451474483,17.2982454 0.9468658,20.8374078 2.48493738,22.0459556 L2.48493738,22.0459556 Z M15.4555295,13.8469494 C13.8638411,14.8656441 13.5768999,17.1748916 14.8145992,19.0045245 C16.0523522,20.834264 18.3459479,21.4918491 19.9375826,20.4731011 C21.529271,19.4544063 21.8162122,17.1452121 20.5784592,15.3154193 C19.3407599,13.4856798 17.0471642,12.8282013 15.4555295,13.8469494 L15.4555295,13.8469494 Z M11.1594698,14.0314206 C9.56788888,13.0126725 7.27423944,13.6701511 6.03659387,15.4998373 C4.79884086,17.3296301 5.08578208,19.6388243 6.67741674,20.6575723 C8.26899767,21.6762671 10.5627008,21.018682 11.8003464,19.1889425 C13.0380457,17.3592563 12.7511582,15.0500621 11.1594698,14.0314206 L11.1594698,14.0314206 Z M17.1488649,23.8800111 C17.1376895,21.9689061 15.4087357,20.4278625 13.2873262,20.4378842 C11.1658093,20.4479508 9.4551754,22.0054593 9.4662424,23.9165111 C9.4662424,23.9286599 9.4662424,23.9408088 9.4662424,23.9529577 C9.47747096,25.8640628 11.2063174,27.4051064 13.3277806,27.3950846 C15.4491901,27.3849648 17.1599851,25.8275095 17.1488649,23.9165111 C17.1488649,23.9043089 17.1488649,23.8922133 17.1488649,23.8800111 L17.1488649,23.8800111 Z M21.7630789,3.06204205 C18.5564933,4.67741764 16.6922618,5.98358276 15.67091,7.09653796 C16.1939156,9.14458441 18.9225703,9.23804558 19.9202297,9.18055151 C19.7159701,9.08767647 19.5455567,8.97636496 19.4851707,8.805428 C19.735472,8.63172024 20.6231578,8.7870981 21.2429207,8.44698257 C21.0048686,8.39876002 20.8934982,8.35192287 20.7821278,8.18023992 C21.3676684,7.99784678 21.9983374,7.84060396 22.3692496,7.53837377 C22.1691268,7.54087815 21.9821127,7.58212042 21.7207442,7.40500244 C22.2451466,7.12888171 22.8048459,6.91014847 23.2395825,6.48808124 C22.9684362,6.48168709 22.6761226,6.48541701 22.5910233,6.38806607 C23.071157,6.09761178 23.4761304,5.77449403 23.811316,5.42111064 C23.4319153,5.4658697 23.2716559,5.42734494 23.1798411,5.36276402 C23.5427484,4.9997894 24.0019296,4.69318988 24.2209097,4.24575919 C23.9391797,4.34065904 23.6814107,4.37699913 23.4955786,4.23744679 C23.6188757,3.9656421 24.1470925,3.80546863 24.4512255,3.17047619 C24.1546677,3.19850388 23.8401122,3.23361843 23.7772011,3.17047619 C23.9150575,2.62228434 24.1513368,2.31424613 24.382942,1.99501816 C23.7481363,1.98585321 22.7864722,1.99746925 22.8299351,1.94503722 L23.2225519,1.55328892 C22.6024129,1.3901848 21.9680369,1.57939837 21.5073515,1.71996312 C21.3006743,1.56053563 21.5110585,1.35890674 21.7632938,1.15317495 C21.2364201,1.22185878 20.7602083,1.34020385 20.3298771,1.5032547 C20.0998836,1.30045355 20.4791768,1.09759912 20.6626451,0.894744693 C19.8485615,1.04564665 19.5036518,1.25766603 19.1608374,1.46989854 C18.9121478,1.23704489 19.1466542,1.03914593 19.314435,0.836451353 C18.7005817,1.05848823 18.3844145,1.34521261 18.0515928,1.62831362 C17.9387718,1.47948977 17.7649202,1.3704695 17.9748208,1.01138466 C17.5389022,1.25686676 17.2107545,1.5460955 16.9679209,1.87001252 C16.6982789,1.70227263 16.8072317,1.47293576 16.8057811,1.2615558 C16.352832,1.62143991 16.0653535,2.00450282 15.7135671,2.37850735 C15.6427048,2.32810013 15.5806533,2.1570566 15.5258546,1.88669059 C14.4452987,2.9107671 12.9183481,5.49032732 15.1333452,6.51307172 C17.0173472,4.99398138 19.2685008,3.89008456 21.763455,3.06204205 L21.7630789,3.06204205 Z M4.77713626,3.06246833 C7.27198302,3.89056412 9.52324403,4.99451423 11.4082668,6.51328485 C13.6231028,5.49054046 12.0962596,2.91103353 11.0157574,1.88690373 C10.9609587,2.15732302 10.8989072,2.32836655 10.8280986,2.37872049 C10.4761511,2.00471596 10.1887263,1.62170634 9.73583089,1.26171565 C9.73438033,1.4731489 9.84333311,1.70253906 9.5736911,1.87027894 C9.33080376,1.54625536 9.00260231,1.2570799 8.56679119,1.01165108 C8.77674556,1.37068264 8.60289389,1.47975619 8.49001923,1.62852676 C8.15714378,1.34547903 7.84097656,1.05875466 7.22706955,0.836664492 C7.39495783,1.03935907 7.62946419,1.23725803 7.38066718,1.47016497 C7.03796018,1.25782588 6.69299677,1.0458065 5.8789132,0.894957831 C6.06243524,1.09775898 6.44167472,1.3006134 6.21162748,1.50352112 C5.78129623,1.34047028 5.30519192,1.22212521 4.77821075,1.1533348 C5.03055355,1.35917317 5.24099144,1.56080205 5.0342068,1.72022954 C4.57357508,1.5796648 3.9391454,1.39039794 3.31911382,1.55344878 L3.71156947,1.94525036 C3.75513984,1.99773568 2.7933683,1.98611964 2.15861628,1.99528459 C2.39032897,2.31445927 2.62650078,2.62255076 2.76424976,3.17047619 C2.70128493,3.23361843 2.38672945,3.19850388 2.09006413,3.17047619 C2.39419712,3.80546863 2.92246768,3.9656421 3.04581855,4.23744679 C2.85993265,4.37699913 2.60221742,4.34065904 2.32043372,4.24575919 C2.53936004,4.69318988 2.99864866,4.9997894 3.36150225,5.36276402 C3.26968751,5.42734494 3.10948179,5.4658697 2.72997368,5.42111064 C3.06521301,5.77449403 3.47024014,6.09761178 3.95021259,6.38806607 C3.86522083,6.48541701 3.57285346,6.48168709 3.30176089,6.48808124 C3.73655125,6.91014847 4.29608932,7.12888171 4.82059918,7.40500244 C4.55912325,7.58212042 4.37232403,7.54087815 4.17209375,7.53837377 C4.54300598,7.84060396 5.17372868,7.99784678 5.75916184,8.18023992 C5.64784519,8.35192287 5.53647482,8.39876002 5.29847639,8.44698257 C5.9181319,8.7870981 6.80587142,8.63172024 7.05622643,8.805428 C6.99578665,8.97636496 6.8253196,9.08767647 6.62106,9.18055151 C7.61871933,9.23804558 10.3473203,9.14458441 10.8703796,7.09653796 C9.84902788,5.9837959 7.98468893,4.67715122 4.77783468,3.06204205 L4.77713626,3.06246833 Z M7.15975306,0.000362873352 C7.48580554,-0.00949477554 7.76275405,0.183981566 8.06387848,0.277016457 C8.7992023,0.0424576984 8.96676824,0.363817052 9.32774148,0.494630717 C10.1290924,0.32918207 10.3726782,0.689385889 10.7573975,1.06957143 L11.2042221,1.06093932 C12.4126954,1.75662291 13.0118283,3.17361998 13.2247912,3.90223344 C13.4376467,3.17383312 14.0380689,1.75672948 15.2468108,1.06093932 L15.6937429,1.06957143 C16.077925,0.689385889 16.321457,0.32918207 17.1229154,0.494630717 C17.4838886,0.363817052 17.6519918,0.0424576984 18.3867784,0.277016457 C18.8455297,0.135279452 19.2470648,-0.239790767 19.8540951,0.228101205 C20.3652814,0.0355839864 20.8608338,-0.0313947415 21.3039515,0.360619977 C21.9883447,0.273925951 22.2105482,0.4528556 22.3790812,0.661731187 C22.5296702,0.65874725 23.5033148,0.510935801 23.9497634,1.16180705 C25.0726539,1.03205908 25.4269654,1.80671043 25.0253766,2.52903631 C25.2542956,2.87575913 25.4921866,3.21821918 24.9560186,3.87889479 C25.1456652,4.24698473 25.0281165,4.64624615 24.5813994,5.12959066 C24.6992704,5.64693073 24.4674503,6.01203673 24.0518932,6.29657643 C24.1296322,7.00472861 23.3872705,7.41645863 23.1654968,7.56309782 C23.0804513,7.9756271 22.9030001,8.36497759 22.054909,8.5803539 C21.9150648,9.19520477 21.4054366,9.30140095 20.9118719,9.43040294 C22.5430476,10.3569687 23.9419196,11.575747 23.9324642,14.5658117 L24.1716983,14.9821242 C26.0422155,16.093321 27.7249128,19.6650403 25.0934452,22.5680913 C24.9216351,23.4768599 24.633297,24.1294896 24.37671,24.8518154 C23.9927428,27.7626459 21.4874198,29.1256657 20.8266652,29.2868516 C19.8582856,30.0073658 18.8269949,30.6910604 17.4313463,31.1700355 C16.1158543,32.4955962 14.6906036,33.0007341 13.2574555,33 C13.2364493,33 13.2150671,33 13.1941146,33 C11.7609128,33.0006809 10.3357696,32.4954897 9.02017014,31.1700355 C7.62457528,30.6910604 6.59328456,30.0073658 5.62501239,29.2868516 C4.96415038,29.1256657 2.45877367,27.7626459 2.07486017,24.8518154 C1.8181657,24.1294896 1.52993509,23.4768599 1.35807122,22.5680913 C-1.27334259,19.6653067 0.409408395,16.0938539 2.27971074,14.9826571 L2.51878365,14.566238 C2.50932819,11.5759069 3.90803906,10.3571285 5.53926848,9.43082922 C5.04575752,9.30177395 4.53607555,9.19563104 4.39628505,8.58067361 C3.54824775,8.36545715 3.37074282,7.97610667 3.28569733,7.5635241 C3.06397735,7.41677834 2.32150821,7.00504832 2.39930092,6.29700271 C1.98374384,6.01246301 1.7519237,5.64741029 1.86984843,5.12996365 C1.42307756,4.64667243 1.30558262,4.24735772 1.49512178,3.87926779 C0.959168654,3.21843232 1.19662984,2.87591898 1.4258175,2.52919616 C1.02385265,1.80687028 1.3786476,1.03216565 2.50105465,1.16186034 C2.94766435,0.511042371 3.92163129,0.658800535 4.07179057,0.661837756 C4.24032355,0.452962169 4.46274195,0.273979236 5.14708145,0.360726546 C5.59019907,-0.0312348877 6.08575156,0.035637271 6.59693781,0.228261059 C6.80554907,0.0673416012 6.98955463,0.00569133221 7.16039775,0.000576011706 L7.15975306,0.000362873352 Z" id="Fill-1" fill="#FFFFFF" mask="url(#mask-2)"></path>
                </g>
            </g>
        </g>
    </g>
</svg>