<svg width="24" height="24" viewBox="0 0 24 24" fill="none" xmlns="http://www.w3.org/2000/svg">
  <path d="M12 22C11.45 22 10.9793 21.8043 10.588 21.413C10.196 21.021 10 20.55 10 20H14C14 20.55 13.8043 21.021 13.413 21.413C13.021 21.8043 12.55 22 12 22ZM8 19V17H16V19H8ZM8.25 16C7.1 15.3167 6.18767 14.4 5.513 13.25C4.83767 12.1 4.5 10.85 4.5 9.5C4.5 7.41667 5.22933 5.646 6.688 4.188C8.146 2.72933 9.91667 2 12 2C14.0833 2 15.854 2.72933 17.312 4.188C18.7707 5.646 19.5 7.41667 19.5 9.5C19.5 10.85 19.1627 12.1 18.488 13.25C17.8127 14.4 16.9 15.3167 15.75 16H8.25ZM8.85 14H15.15C15.9 13.4667 16.4793 12.8083 16.888 12.025C17.296 11.2417 17.5 10.4 17.5 9.5C17.5 7.96667 16.9667 6.66667 15.9 5.6C14.8333 4.53333 13.5333 4 12 4C10.4667 4 9.16667 4.53333 8.1 5.6C7.03333 6.66667 6.5 7.96667 6.5 9.5C6.5 10.4 6.70433 11.2417 7.113 12.025C7.521 12.8083 8.1 13.4667 8.85 14Z" fill="#46AF4B"/>
</svg>
